<svg width="595" height="387" viewBox="0 0 595 387" fill="none" xmlns="http://www.w3.org/2000/svg">
<g clip-path="url(#clip0_139_2)">
<path d="M592.169 126.331C583.961 152.512 559.996 170.839 534.997 186.408C531.506 188.582 528.015 190.706 524.522 192.781C524.498 192.79 524.474 192.81 524.45 192.82C524.282 192.919 524.113 193.019 523.957 193.119C523.236 193.546 522.515 193.973 521.8 194.396L522.193 194.558C522.193 194.558 522.578 194.747 522.156 194.588C522.031 194.54 521.899 194.497 521.774 194.448C507.251 189.062 492.471 183.28 481.341 173.191C469.796 162.714 463.049 146.281 469.3 132.517C470.122 130.714 471.16 129.001 472.395 127.41C472.902 126.743 473.448 126.104 474.017 125.477C477.465 121.608 481.973 118.652 487.075 116.915C492.178 115.177 497.691 114.721 503.049 115.593C508.407 116.464 513.416 118.632 517.56 121.874C521.705 125.116 524.836 129.314 526.631 134.037C528.467 118.313 514.367 105.142 500.797 95.4244C487.222 85.7112 471.796 75.1334 469.172 59.4973C467.706 50.7975 470.996 42.3666 476.99 35.5985C477.175 35.3929 477.36 35.1875 477.552 34.9875C484.847 27.1048 495.109 22.0429 506.286 20.813C527.103 18.8238 547.322 28.9552 562.445 42.2632C586.785 63.675 601.499 96.5634 592.169 126.331Z" fill="#F2F2F2"/>
<path d="M553.041 92.0866C557.037 97.8018 560.104 104.022 562.146 110.551C563.874 116.387 564.643 122.428 564.427 128.472C564.053 140.897 559.896 153.039 553.354 163.853C548.293 172.052 542.125 179.631 534.997 186.408C531.506 188.582 528.015 190.706 524.522 192.781C524.498 192.79 524.474 192.81 524.45 192.82C524.282 192.919 524.113 193.019 523.957 193.119C523.236 193.546 522.515 193.973 521.8 194.396C521.8 194.396 522.578 194.747 522.156 194.588C522.031 194.54 521.899 194.497 521.774 194.448C523.076 184.636 521.801 174.679 518.056 165.413C514.311 156.147 508.205 147.842 500.25 141.193C492.276 134.645 482.731 129.922 472.395 127.41C472.902 126.743 473.448 126.104 474.017 125.478C478.009 126.507 481.894 127.859 485.627 129.517C498.972 135.41 509.899 145.096 516.79 157.143C522.974 168.082 525.636 180.416 524.462 192.698C525.059 192.2 525.656 191.692 526.236 191.189C537.272 181.729 547.074 170.87 553.707 158.338C559.462 147.725 562.291 135.973 561.944 124.118C561.402 111.192 555.801 99.2188 547.691 88.7955C539.004 77.6401 528.112 67.7705 516.482 59.2204C504.569 50.4473 491.534 43.0475 477.666 37.1859C477.354 37.0517 477.109 36.8121 476.983 36.5167C476.857 36.2212 476.859 35.8925 476.99 35.5986C477.082 35.3348 477.284 35.1152 477.552 34.9876C477.689 34.933 477.838 34.9077 477.988 34.9135C478.138 34.9194 478.284 34.9562 478.416 35.0214C480.129 35.7461 481.829 36.4808 483.516 37.2472C497.564 43.6318 510.695 51.5964 522.608 60.9579C534.114 69.9783 544.947 80.2841 553.041 92.0866Z" fill="white"/>
<path d="M458.221 276.24C475.034 276.24 488.664 263.708 488.664 248.249C488.664 232.789 475.034 220.257 458.221 220.257C441.408 220.257 427.779 232.789 427.779 248.249C427.779 263.708 441.408 276.24 458.221 276.24Z" fill="#2F2E41"/>
<path d="M434.459 233.156C439.379 228.633 440.376 222.216 436.686 218.824C432.997 215.431 426.018 216.348 421.098 220.871C416.179 225.394 415.182 231.811 418.871 235.204C422.561 238.596 429.54 237.68 434.459 233.156Z" fill="#2F2E41"/>
<path d="M489.95 224.267C492 219.855 488.475 214.241 482.077 211.729C475.68 209.216 468.832 210.755 466.782 215.167C464.732 219.579 468.257 225.193 474.655 227.706C481.053 230.219 487.901 228.679 489.95 224.267Z" fill="#2F2E41"/>
<path d="M522.691 368.435C517.46 371.776 511.933 374.707 506.167 377.195L505.315 375.81L497.156 362.642L496.441 361.487L492.268 354.752L492.259 354.744L479.082 333.457L472.309 322.528L492.422 309.557L500.246 324.767L504.489 333.029L521.951 366.987L522.691 368.435Z" fill="#A0616A"/>
<path d="M504.721 317.075L502.199 313.443L491.045 297.354C489.522 294.229 486.714 291.785 483.236 290.56C479.757 289.334 475.893 289.426 472.488 290.815C469.083 292.205 466.416 294.778 465.071 297.972C463.726 301.166 463.813 304.72 465.312 307.856L472.206 330.441C472.4 331.08 472.741 331.674 473.206 332.182C473.67 332.69 474.247 333.1 474.899 333.386C475.55 333.671 476.261 333.825 476.982 333.838C477.704 333.85 478.42 333.72 479.082 333.456C479.108 333.448 479.126 333.441 479.151 333.433L500.246 324.767L502.518 323.833C503.181 323.559 503.773 323.156 504.252 322.653C504.732 322.15 505.088 321.557 505.297 320.917C505.506 320.276 505.562 319.601 505.463 318.938C505.364 318.276 505.111 317.64 504.721 317.075Z" fill="#4CAF50"/>
<path d="M444.114 317.582L438.244 329.769L436.971 332.42L415.239 377.559L414.542 379.007C408.657 376.751 402.991 374.04 397.604 370.904L398.19 369.384L415.928 323.367L420.283 312.066L429.819 314.274L444.114 317.582Z" fill="#A0616A"/>
<path d="M481.857 266.326C488.701 254.814 484.1 240.379 471.58 234.086C459.059 227.793 443.361 232.024 436.517 243.536C429.673 255.049 434.274 269.483 446.794 275.776C459.315 282.069 475.013 277.838 481.857 266.326Z" fill="#A0616A"/>
<path d="M504.222 322.686C503.848 319.556 503.171 316.462 502.199 313.443C499.269 304.351 493.668 296.18 486.011 289.829C483.197 287.507 479.549 286.224 475.769 286.228H439.372C436.756 286.222 434.182 286.832 431.896 288.001C429.609 289.169 427.687 290.857 426.312 292.903C424.937 294.949 424.155 297.285 424.041 299.688C423.928 302.091 424.485 304.481 425.662 306.629L429.819 314.274L438.244 329.769L440.267 333.48L449.278 350.059L449.992 351.373L495.736 362.943L495.934 362.539C496.106 362.183 496.278 361.835 496.441 361.486C496.691 360.956 496.941 360.442 497.173 359.92C501.787 349.861 503.964 340.911 504.489 333.029C504.725 329.581 504.635 326.12 504.222 322.686Z" fill="#4CAF50"/>
<path d="M445.973 290.565C442.606 289.114 438.752 288.949 435.253 290.106C431.755 291.263 428.897 293.647 427.306 296.737L424.061 301.24L413.217 316.292C412.814 316.85 412.548 317.482 412.434 318.144C412.321 318.806 412.365 319.482 412.562 320.127C412.758 320.772 413.104 321.371 413.575 321.882C414.046 322.393 414.631 322.805 415.291 323.09L415.928 323.367L436.971 332.42L438.468 333.061C439.033 333.305 439.644 333.448 440.267 333.48C441.098 333.541 441.933 333.407 442.694 333.092C443.358 332.819 443.95 332.418 444.429 331.915C444.909 331.413 445.265 330.821 445.474 330.18L452.755 307.777C454.335 304.667 454.508 301.108 453.236 297.881C451.965 294.654 449.353 292.022 445.973 290.565Z" fill="#4CAF50"/>
<path d="M497.44 359.8L497.441 359.803C497.665 360.503 497.683 361.244 497.495 361.952L497.495 361.952L497.417 362.245L497.417 362.246L492.718 380.067L492.718 380.067L492.317 381.589C471.279 387.568 448.802 387.776 427.639 382.19C427.751 381.857 427.866 381.53 427.986 381.206L427.986 381.205C432.96 367.594 442.585 360.468 445.595 358.512C446.242 358.095 446.76 357.522 447.089 356.849C447.089 356.848 447.089 356.848 447.089 356.847L450.471 350.012L450.471 350.012L450.995 348.952C451.354 348.228 451.936 347.608 452.676 347.171C453.417 346.734 454.282 346.499 455.169 346.5H455.169H455.202C476.352 346.618 487.258 351.093 492.692 354.868L492.704 354.879L492.734 354.899C494.283 355.938 495.652 357.185 496.797 358.596C497.089 358.961 497.306 359.369 497.44 359.8Z" fill="#81C784" stroke="black"/>
<path d="M432.039 239.988C437.943 243.73 444.951 245.721 452.121 245.695C449.563 247.326 446.651 248.427 443.586 248.924C453.12 250.804 462.973 250.855 472.529 249.073C474.653 248.76 476.702 248.113 478.587 247.16C479.527 246.677 480.345 246.019 480.989 245.226C481.634 244.434 482.09 243.526 482.327 242.561C482.962 239.225 480.135 236.195 477.198 234.153C472.7 231.073 467.515 228.952 462.016 227.942C456.518 226.931 450.843 227.057 445.404 228.311C441.853 229.155 438.295 230.581 435.988 233.204C433.681 235.826 432.998 239.869 435.196 242.57L432.039 239.988Z" fill="#2F2E41"/>
<path d="M467.68 24.1202H0.93457V25.8404H467.68V24.1202Z" fill="#3F3D56"/>
<path d="M16.8358 18.0654C19.9353 18.0654 22.448 15.7551 22.448 12.9051C22.448 10.0551 19.9353 7.74475 16.8358 7.74475C13.7363 7.74475 11.2236 10.0551 11.2236 12.9051C11.2236 15.7551 13.7363 18.0654 16.8358 18.0654Z" fill="#3F3D56"/>
<path d="M32.9708 18.0654C36.0703 18.0654 38.583 15.7551 38.583 12.9051C38.583 10.0551 36.0703 7.74475 32.9708 7.74475C29.8713 7.74475 27.3586 10.0551 27.3586 12.9051C27.3586 15.7551 29.8713 18.0654 32.9708 18.0654Z" fill="#3F3D56"/>
<path d="M49.1058 18.0654C52.2053 18.0654 54.718 15.7551 54.718 12.9051C54.718 10.0551 52.2053 7.74475 49.1058 7.74475C46.0063 7.74475 43.4937 10.0551 43.4937 12.9051C43.4937 15.7551 46.0063 18.0654 49.1058 18.0654Z" fill="#3F3D56"/>
<path d="M366.596 123.945H101.688C100.9 123.945 100.119 123.802 99.3907 123.525C98.6623 123.247 98.0005 122.841 97.443 122.328C96.8855 121.815 96.4433 121.207 96.1416 120.537C95.8399 119.867 95.6846 119.149 95.6846 118.425C95.6846 117.7 95.8399 116.982 96.1416 116.312C96.4433 115.642 96.8855 115.034 97.443 114.521C98.0005 114.009 98.6623 113.602 99.3907 113.324C100.119 113.047 100.9 112.904 101.688 112.904H366.596C367.384 112.904 368.165 113.047 368.894 113.324C369.622 113.602 370.284 114.009 370.841 114.521C371.399 115.034 371.841 115.642 372.143 116.312C372.444 116.982 372.6 117.7 372.6 118.425C372.6 119.149 372.444 119.867 372.143 120.537C371.841 121.207 371.399 121.815 370.841 122.328C370.284 122.841 369.622 123.247 368.894 123.525C368.165 123.802 367.384 123.945 366.596 123.945Z" fill="#CCCCCC"/>
<path d="M366.596 183.287H101.688C100.9 183.287 100.119 183.145 99.3907 182.867C98.6623 182.59 98.0005 182.183 97.443 181.67C96.8855 181.158 96.4433 180.549 96.1416 179.88C95.8399 179.21 95.6846 178.492 95.6846 177.767C95.6846 177.042 95.8399 176.324 96.1416 175.655C96.4433 174.985 96.8855 174.376 97.443 173.864C98.0005 173.351 98.6623 172.944 99.3907 172.667C100.119 172.39 100.9 172.247 101.688 172.247H366.596C367.384 172.247 368.165 172.39 368.894 172.667C369.622 172.944 370.284 173.351 370.841 173.864C371.399 174.376 371.841 174.985 372.143 175.655C372.444 176.324 372.6 177.042 372.6 177.767C372.6 178.492 372.444 179.21 372.143 179.88C371.841 180.549 371.399 181.158 370.841 181.67C370.284 182.183 369.622 182.59 368.894 182.867C368.165 183.145 367.384 183.287 366.596 183.287Z" fill="#E6E6E6"/>
<path d="M366.596 206.058H101.688C100.096 206.058 98.5689 205.477 97.443 204.441C96.3171 203.406 95.6846 202.002 95.6846 200.538C95.6846 199.074 96.3171 197.67 97.443 196.635C98.5689 195.599 100.096 195.018 101.688 195.018H366.596C368.188 195.018 369.715 195.599 370.841 196.635C371.967 197.67 372.6 199.074 372.6 200.538C372.6 202.002 371.967 203.406 370.841 204.441C369.715 205.477 368.188 206.058 366.596 206.058Z" fill="#E6E6E6"/>
<path d="M323.445 100.484H144.839C143.247 100.484 141.72 99.9021 140.594 98.8669C139.468 97.8316 138.835 96.4275 138.835 94.9635C138.835 93.4994 139.468 92.0953 140.594 91.0601C141.72 90.0248 143.247 89.4432 144.839 89.4432H323.445C325.037 89.4432 326.564 90.0248 327.69 91.0601C328.816 92.0953 329.449 93.4994 329.449 94.9635C329.449 96.4275 328.816 97.8316 327.69 98.8669C326.564 99.9021 325.037 100.484 323.445 100.484Z" fill="#CCCCCC"/>
<path d="M195.08 160.516H102.025C101.236 160.517 100.454 160.375 99.7253 160.098C98.9961 159.821 98.3334 159.414 97.7751 158.902C97.2169 158.389 96.774 157.78 96.4719 157.11C96.1697 156.44 96.0142 155.722 96.0142 154.996C96.0142 154.271 96.1697 153.552 96.4719 152.882C96.774 152.212 97.2169 151.603 97.7751 151.09C98.3334 150.578 98.9961 150.171 99.7253 149.894C100.454 149.617 101.236 149.475 102.025 149.476H195.08C196.673 149.476 198.2 150.057 199.326 151.093C200.451 152.128 201.084 153.532 201.084 154.996C201.084 156.46 200.451 157.864 199.326 158.899C198.2 159.935 196.673 160.516 195.08 160.516Z" fill="#E6E6E6"/>
<path d="M366.933 160.516H273.877C273.088 160.517 272.307 160.375 271.578 160.098C270.848 159.821 270.186 159.414 269.627 158.902C269.069 158.389 268.626 157.78 268.324 157.11C268.022 156.44 267.866 155.722 267.866 154.996C267.866 154.271 268.022 153.552 268.324 152.882C268.626 152.212 269.069 151.603 269.627 151.09C270.186 150.578 270.848 150.171 271.578 149.894C272.307 149.617 273.088 149.475 273.877 149.476H366.933C367.722 149.475 368.503 149.617 369.232 149.894C369.962 150.171 370.624 150.578 371.183 151.09C371.741 151.603 372.184 152.212 372.486 152.882C372.788 153.552 372.943 154.271 372.943 154.996C372.943 155.722 372.788 156.44 372.486 157.11C372.184 157.78 371.741 158.389 371.183 158.902C370.624 159.414 369.962 159.821 369.232 160.098C368.503 160.375 367.722 160.517 366.933 160.516Z" fill="#E6E6E6"/>
<path d="M462.067 0H6.54104C4.80559 0.00242764 3.14208 0.637948 1.91572 1.76704C0.689362 2.89613 0.000381031 4.42653 0 6.02227V289.844C0.00218635 291.439 0.692027 292.968 1.91824 294.095C3.14445 295.223 4.80693 295.857 6.54104 295.859H347.179C347.093 295.289 347.024 294.711 346.955 294.142H6.54104C5.30192 294.141 4.11387 293.688 3.23766 292.882C2.36146 292.076 1.86869 290.984 1.86755 289.844V6.02227C1.86836 4.88208 2.36074 3.7887 3.23677 2.98174C4.1128 2.17478 5.30103 1.72006 6.54104 1.71726H462.067C463.308 1.71845 464.498 2.17239 465.376 2.97948C466.254 3.78657 466.748 4.88088 466.749 6.02227V179.972C467.369 180.011 467.997 180.059 468.617 180.114V6.02227C468.616 4.42526 467.926 2.8939 466.698 1.76467C465.469 0.635447 463.804 0.000733921 462.067 0Z" fill="#3F3D56"/>
<path d="M347.179 295.859C347.093 295.289 347.024 294.711 346.955 294.142C346.938 294.054 346.929 293.975 346.92 293.888C346.671 291.807 346.49 289.705 346.378 287.581C345.905 289.409 345.478 291.245 345.096 293.089C345.122 293.358 345.148 293.619 345.182 293.888C345.191 293.975 345.199 294.054 345.216 294.142C345.285 294.711 345.354 295.289 345.44 295.859C345.681 297.624 345.974 299.365 346.318 301.098C346.327 301.026 346.335 300.963 346.344 300.892C346.585 299.222 346.86 297.56 347.187 295.898C347.18 295.886 347.178 295.872 347.179 295.859ZM468.617 178.523C467.997 178.468 467.369 178.421 466.749 178.381C466.654 178.373 466.568 178.373 466.474 178.365C463.719 178.175 460.931 178.08 458.125 178.08C442.24 178.085 426.532 181.152 412.016 187.083C397.499 193.014 384.496 201.677 373.845 212.514C363.195 223.351 355.134 236.121 350.182 249.999C345.23 263.878 343.497 278.557 345.096 293.089C345.122 293.358 345.148 293.619 345.182 293.888C345.191 293.975 345.199 294.054 345.216 294.142C345.285 294.711 345.354 295.289 345.44 295.859C345.681 297.624 345.974 299.365 346.318 301.098C349.738 318.28 357.769 334.404 369.682 348.01C381.596 361.615 397.016 372.27 414.542 379.007C416.332 379.688 418.139 380.337 419.973 380.93C421.178 381.334 422.382 381.706 423.604 382.062C424.482 382.323 425.369 382.568 426.255 382.806C427.512 383.146 428.786 383.471 430.068 383.771C445.799 387.482 462.215 388.033 478.198 385.387C494.181 382.74 509.357 376.958 522.691 368.435H522.7C537.822 358.834 550.184 346.003 558.724 331.042C567.264 316.08 571.728 299.437 571.731 282.54C571.731 228.189 526.358 183.406 468.617 178.523ZM521.951 366.986C516.693 370.363 511.126 373.315 505.315 375.81C501.139 377.607 496.844 379.161 492.457 380.463C472.657 386.322 451.475 386.998 431.281 382.418C429.767 382.078 428.264 381.706 426.772 381.302C425.3 380.907 423.843 380.487 422.4 380.044C421.221 379.672 420.041 379.292 418.871 378.889C417.649 378.461 416.444 378.018 415.239 377.559C397.116 370.614 381.292 359.417 369.35 345.087C357.408 330.757 349.766 313.796 347.187 295.898C347.18 295.886 347.178 295.872 347.179 295.859C347.093 295.289 347.024 294.711 346.955 294.142C346.938 294.054 346.929 293.975 346.92 293.888C346.671 291.807 346.49 289.705 346.378 287.581C346.284 285.911 346.238 284.231 346.24 282.54C346.273 255.265 358.071 229.115 379.047 209.828C400.022 190.541 428.462 179.693 458.125 179.663C460.931 179.663 463.72 179.758 466.474 179.948C466.568 179.956 466.655 179.964 466.749 179.972C467.369 180.011 467.997 180.059 468.617 180.114C525.411 184.989 570.01 229.06 570.01 282.54C570.008 299.138 565.635 315.488 557.266 330.193C548.897 344.899 536.78 357.523 521.951 366.986ZM418.871 378.889C417.649 378.461 416.444 378.018 415.239 377.559C397.116 370.614 381.292 359.417 369.35 345.087C357.408 330.757 349.766 313.796 347.187 295.898C346.86 297.56 346.585 299.222 346.344 300.892C346.335 300.963 346.327 301.026 346.318 301.098C349.738 318.28 357.769 334.404 369.682 348.01C381.596 361.615 397.016 372.27 414.542 379.007C416.332 379.688 418.139 380.337 419.973 380.93C419.594 380.258 419.224 379.577 418.871 378.889ZM466.474 178.365C463.719 178.175 460.931 178.08 458.125 178.08C442.24 178.085 426.532 181.152 412.016 187.083C397.499 193.014 384.496 201.677 373.845 212.514C363.195 223.351 355.134 236.121 350.182 249.999C345.23 263.878 343.497 278.557 345.096 293.089C345.122 293.358 345.148 293.619 345.182 293.888C345.191 293.975 345.199 294.054 345.216 294.142H346.955C346.938 294.054 346.929 293.975 346.92 293.888C346.671 291.807 346.49 289.705 346.378 287.581C346.284 285.911 346.238 284.231 346.24 282.54C346.273 255.265 358.071 229.115 379.047 209.828C400.022 190.541 428.462 179.693 458.125 179.663C460.931 179.663 463.72 179.758 466.474 179.948C466.568 179.956 466.655 179.964 466.749 179.972L466.749 178.381C466.654 178.373 466.568 178.373 466.474 178.365Z" fill="#3F3D56"/>
<path d="M550.469 204.818C585.363 205.366 585.357 253.092 550.467 253.635C515.574 253.087 515.58 205.361 550.469 204.818Z" fill="#4CAF50"/>
<path d="M550.469 242.517C549.974 242.516 549.5 242.335 549.15 242.014C548.801 241.692 548.604 241.256 548.603 240.801V231.706C548.603 231.504 548.515 231.309 548.359 231.166C548.204 231.023 547.992 230.942 547.772 230.942H537.88C537.386 230.942 536.911 230.761 536.561 230.439C536.211 230.118 536.015 229.681 536.015 229.226C536.015 228.771 536.211 228.335 536.561 228.013C536.911 227.691 537.386 227.511 537.88 227.511H547.772C547.992 227.51 548.204 227.43 548.359 227.287C548.515 227.143 548.603 226.949 548.603 226.746V217.651C548.603 217.196 548.8 216.76 549.15 216.438C549.499 216.116 549.974 215.936 550.469 215.936C550.963 215.936 551.438 216.116 551.788 216.438C552.138 216.76 552.334 217.196 552.334 217.651V226.746C552.334 226.949 552.422 227.143 552.578 227.287C552.734 227.43 552.945 227.51 553.165 227.511H563.057C563.552 227.511 564.026 227.691 564.376 228.013C564.726 228.335 564.923 228.771 564.923 229.226C564.923 229.681 564.726 230.118 564.376 230.439C564.026 230.761 563.552 230.942 563.057 230.942H553.165C552.945 230.942 552.734 231.023 552.578 231.166C552.422 231.309 552.334 231.504 552.334 231.706V240.801C552.334 241.256 552.137 241.692 551.787 242.014C551.437 242.335 550.963 242.516 550.469 242.517Z" fill="white"/>
</g>
<defs>
<clipPath id="clip0_139_2">
<rect width="595" height="387" fill="white"/>
</clipPath>
</defs>
</svg>
