<svg width="505" height="365" viewBox="0 0 505 365" fill="none" xmlns="http://www.w3.org/2000/svg">
<g clip-path="url(#clip0_166_30)">
<path d="M74.8658 258.738C74.4514 258.111 73.9046 257.582 73.2638 257.189C72.623 256.796 71.9039 256.549 71.157 256.464C70.4101 256.379 69.6536 256.459 68.9409 256.697C68.2281 256.936 67.5764 257.328 67.0317 257.846L50.7942 249.468L51.8036 258.907L67.0683 265.416C67.9992 266.273 69.2124 266.759 70.4778 266.782C71.7432 266.804 72.973 266.362 73.9341 265.539C74.8953 264.716 75.521 263.569 75.6927 262.316C75.8644 261.062 75.5702 259.789 74.8658 258.738Z" fill="#A0616A"/>
<path d="M60.4354 262.537C60.1416 262.672 59.8227 262.743 59.4994 262.747C59.1762 262.75 58.8559 262.686 58.5592 262.557L43.1359 255.869C37.8623 253.583 33.5989 249.46 31.1387 244.266L23.0302 227.156C22.4318 226.388 21.9908 225.509 21.7325 224.57C21.4741 223.631 21.4034 222.65 21.5245 221.684C21.6456 220.717 21.956 219.784 22.438 218.938C22.9201 218.092 23.5643 217.348 24.3338 216.751C25.1033 216.154 25.983 215.714 26.9227 215.457C27.8623 215.2 28.8435 215.13 29.81 215.253C30.7765 215.375 31.7094 215.686 32.5555 216.169C33.4015 216.652 34.144 217.297 34.7405 218.067L48.9931 244.502L62.1536 254.44C62.5303 254.726 62.8101 255.121 62.9552 255.571C63.1003 256.021 63.1037 256.504 62.9649 256.956L61.6732 261.127C61.5344 261.574 61.2626 261.969 60.894 262.258C60.7527 262.369 60.5988 262.462 60.4354 262.537Z" fill="#81C784"/>
<path d="M22.6735 207.034C29.6097 207.034 35.2327 201.413 35.2327 194.479C35.2327 187.545 29.6097 181.924 22.6735 181.924C15.7372 181.924 10.1143 187.545 10.1143 194.479C10.1143 201.413 15.7372 207.034 22.6735 207.034Z" fill="#A0616A"/>
<path d="M27.7606 359.181L34.0292 359.18L37.0119 335.007L27.759 335.008L27.7606 359.181Z" fill="#A0616A"/>
<path d="M46.1199 364.999L26.4173 365L26.4169 357.39L38.5072 357.39C40.5261 357.389 42.4624 358.191 43.89 359.618C45.3177 361.045 46.1198 362.981 46.1199 364.999Z" fill="#2F2E41"/>
<path d="M7.30671 359.181L13.5753 359.18L16.558 335.007L7.30518 335.008L7.30671 359.181Z" fill="#A0616A"/>
<path d="M25.6658 364.999L5.96319 365L5.96284 357.39L18.0531 357.39C20.072 357.389 22.0083 358.191 23.4359 359.618C24.8636 361.045 25.6657 362.981 25.6658 364.999Z" fill="#2F2E41"/>
<path d="M5.11749 352.261C4.90149 352.015 4.74069 351.725 4.64589 351.411C4.55108 351.097 4.52446 350.767 4.56779 350.442L15.5437 268.149L42.8131 272.779L45.7234 271.033L38.1976 349.113C38.135 349.64 37.8925 350.13 37.5109 350.499C37.1294 350.868 36.6321 351.094 36.1031 351.14L27.846 351.828C27.5177 351.855 27.1874 351.812 26.8773 351.7C26.5672 351.589 26.2847 351.413 26.0488 351.183C25.8128 350.953 25.629 350.675 25.5098 350.368C25.3905 350.061 25.3386 349.732 25.3575 349.403L27.4953 312.219C27.4991 312.156 27.4793 312.093 27.4397 312.044C27.4002 311.994 27.3437 311.961 27.2812 311.951C27.2187 311.941 27.1547 311.954 27.1015 311.989C27.0483 312.023 27.0097 312.076 26.9932 312.137L16.4169 351.345C16.2847 351.833 15.9955 352.264 15.5941 352.571C15.1926 352.879 14.7011 353.046 14.1953 353.047H6.84879C6.5209 353.047 6.19679 352.977 5.89819 352.841C5.5996 352.706 5.33342 352.508 5.11749 352.261Z" fill="#2F2E41"/>
<path d="M24.0027 273.909C23.6897 273.626 23.2873 273.461 22.8655 273.444C22.4436 273.426 22.0289 273.557 21.6934 273.813L16.2415 278.052C15.9448 278.284 15.5958 278.439 15.2252 278.504C14.8546 278.569 14.4737 278.542 14.1159 278.426C13.7582 278.309 13.4344 278.107 13.1731 277.836C12.9118 277.565 12.721 277.235 12.6173 276.873C9.94312 267.511 3.88436 243.944 5.37695 227.357C6.223 217.955 14.3445 210.809 23.4812 211.409C29.7276 211.825 33.837 215.427 35.6952 222.115C40.2578 238.535 45.2719 268.655 46.2307 274.527C46.3064 274.982 46.2425 275.45 46.0476 275.869C45.8526 276.288 45.5356 276.637 45.1382 276.873C42.5587 278.421 39.6114 279.25 36.6028 279.274C32.9625 279.274 28.5976 278.007 24.0027 273.909Z" fill="#81C784"/>
<path d="M26.0599 279.751C26.121 279.002 26.017 278.248 25.7554 277.544C25.4937 276.839 25.0807 276.201 24.5455 275.673C24.0102 275.145 23.3657 274.741 22.6575 274.49C21.9492 274.238 21.1943 274.144 20.446 274.216L12.8413 257.606L7.80884 265.656L15.8019 280.195C16.0053 281.444 16.6599 282.574 17.6416 283.373C18.6233 284.171 19.8639 284.582 21.1283 284.527C22.3927 284.473 23.5932 283.956 24.5021 283.076C25.411 282.195 25.9653 281.012 26.0599 279.751Z" fill="#A0616A"/>
<path d="M12.3597 273.837C12.0454 273.762 11.7504 273.622 11.4939 273.425C11.2375 273.228 11.0253 272.98 10.8711 272.696L2.86387 257.918C0.125491 252.866 -0.683935 246.991 0.586149 241.387L4.76819 222.921C4.77198 221.947 4.96771 220.984 5.3442 220.086C5.72068 219.188 6.27054 218.373 6.96233 217.687C7.65412 217.002 8.47428 216.459 9.37593 216.091C10.2776 215.722 11.243 215.535 12.2171 215.54C13.1912 215.545 14.1547 215.741 15.0527 216.118C15.9507 216.496 16.7656 217.046 17.4506 217.738C18.1357 218.431 18.6775 219.251 19.0452 220.153C19.4129 221.055 19.5992 222.02 19.5935 222.994L14.4895 252.587L18.71 268.526C18.83 268.984 18.8066 269.467 18.6431 269.91C18.4795 270.354 18.1836 270.737 17.7954 271.007L14.2042 273.492C13.819 273.758 13.3617 273.901 12.8933 273.9C12.7136 273.901 12.5345 273.879 12.3597 273.837Z" fill="#81C784"/>
<path opacity="0.2" d="M18.5748 235.474L13.9727 254.899L20.6202 271.257L16.018 255.41L18.5748 235.474Z" fill="black"/>
<path d="M15.5064 204.803C14.3893 204.824 13.279 204.623 12.2399 204.212C11.7827 204.036 11.3081 203.891 10.8518 203.715C6.82151 202.159 4.16661 197.868 4.07152 193.549C3.97644 189.231 6.21339 185.04 9.53508 182.278C12.8568 179.516 17.1592 178.098 21.4674 177.77C26.108 177.417 31.3334 178.593 33.9265 182.456C34.6168 183.485 35.0995 184.733 34.6905 185.974C34.568 186.349 34.3492 186.685 34.056 186.949C32.898 187.979 31.7434 187.204 30.5629 187.136C28.9403 187.042 27.4829 188.355 26.9591 189.893C26.4352 191.431 26.6658 193.124 27.0888 194.693C27.411 195.637 27.6141 196.618 27.6934 197.612C27.7276 198.111 27.6338 198.61 27.4209 199.062C27.2081 199.514 26.8832 199.904 26.4772 200.196C25.4632 200.809 24.1316 200.454 23.1171 199.842C22.1025 199.231 21.2259 198.38 20.13 197.93C19.0342 197.48 17.5618 197.58 16.924 198.578C16.7213 198.941 16.5841 199.337 16.5186 199.748C15.9468 202.352 16.0783 202.199 15.5064 204.803Z" fill="#2F2E41"/>
<path d="M387.261 117.818H76.8729C75.6906 117.819 74.557 118.289 73.721 119.125C72.885 119.96 72.4149 121.093 72.4138 122.275V332.536C72.4149 333.718 72.885 334.851 73.721 335.687C74.557 336.522 75.6906 336.992 76.8729 336.993H387.261C387.905 336.993 388.542 336.854 389.128 336.583C389.713 336.313 390.233 335.92 390.651 335.429C390.686 335.391 390.719 335.35 390.748 335.306C391.014 334.981 391.23 334.617 391.387 334.228C391.612 333.692 391.726 333.117 391.724 332.536V201.647H390.451V332.536C390.452 333.158 390.269 333.766 389.925 334.284C389.619 334.74 389.204 335.113 388.718 335.368C388.267 335.6 387.768 335.721 387.261 335.721H76.8729C76.0283 335.72 75.2185 335.384 74.6212 334.787C74.024 334.19 73.688 333.38 73.6869 332.536V122.275C73.688 121.431 74.024 120.622 74.6212 120.025C75.2185 119.428 76.0283 119.092 76.8729 119.091H387.261C388.106 119.091 388.917 119.426 389.515 120.023C390.113 120.62 390.45 121.43 390.451 122.275V150.529H391.725V122.275C391.723 121.093 391.252 119.959 390.415 119.123C389.578 118.287 388.444 117.818 387.261 117.818Z" fill="#3F3D56"/>
<path d="M391.085 135.685H73.0486V136.959H391.085V135.685Z" fill="#3F3D56"/>
<path d="M83.8834 131.2C85.9954 131.2 87.7075 129.488 87.7075 127.377C87.7075 125.266 85.9954 123.554 83.8834 123.554C81.7714 123.554 80.0593 125.266 80.0593 127.377C80.0593 129.488 81.7714 131.2 83.8834 131.2Z" fill="#CCCCCC"/>
<path d="M94.8775 131.2C96.9895 131.2 98.7016 129.488 98.7016 127.377C98.7016 125.266 96.9895 123.554 94.8775 123.554C92.7656 123.554 91.0535 125.266 91.0535 127.377C91.0535 129.488 92.7656 131.2 94.8775 131.2Z" fill="#CCCCCC"/>
<path d="M105.872 131.2C107.984 131.2 109.696 129.488 109.696 127.377C109.696 125.266 107.984 123.554 105.872 123.554C103.76 123.554 102.048 125.266 102.048 127.377C102.048 129.488 103.76 131.2 105.872 131.2Z" fill="#CCCCCC"/>
<path d="M182.682 311.222C181.366 311.216 180.071 310.881 178.917 310.249C177.762 309.617 176.784 308.707 176.069 307.602C175.355 306.496 174.928 305.23 174.827 303.918C174.725 302.606 174.953 301.289 175.489 300.087L184.599 279.768C177.424 273.423 171.683 265.625 167.756 256.891C163.829 248.157 161.806 238.687 161.823 229.111C161.823 191.7 192.269 161.263 229.693 161.263C267.117 161.263 297.562 191.7 297.562 229.111C297.562 266.522 267.117 296.959 229.693 296.959C223.146 296.953 216.635 295.994 210.365 294.113L187.114 309.849C185.808 310.74 184.264 311.218 182.682 311.222ZM229.693 170.731C217.581 170.724 205.767 174.483 195.889 181.489C186.01 188.495 178.556 198.399 174.561 209.829C170.565 221.26 170.226 233.649 173.589 245.281C176.953 256.913 183.853 267.21 193.333 274.746L196.203 277.034L186.4 298.899L208.895 283.675L211.116 284.421C219.14 287.116 227.654 288.034 236.068 287.113C244.483 286.191 252.596 283.451 259.845 279.083C267.095 274.715 273.308 268.824 278.054 261.817C282.799 254.81 285.964 246.855 287.329 238.504C288.693 230.153 288.225 221.605 285.956 213.453C283.688 205.3 279.673 197.739 274.19 191.292C268.708 184.845 261.888 179.667 254.205 176.116C246.521 172.566 238.157 170.728 229.693 170.731Z" fill="#3F3D56"/>
<path d="M229.693 235.423C234.923 235.423 239.163 231.184 239.163 225.956C239.163 220.727 234.923 216.488 229.693 216.488C224.463 216.488 220.223 220.727 220.223 225.956C220.223 231.184 224.463 235.423 229.693 235.423Z" fill="#3F3D56"/>
<path d="M202.861 235.423C208.091 235.423 212.331 231.184 212.331 225.956C212.331 220.727 208.091 216.488 202.861 216.488C197.631 216.488 193.391 220.727 193.391 225.956C193.391 231.184 197.631 235.423 202.861 235.423Z" fill="#3F3D56"/>
<path d="M256.525 235.423C261.755 235.423 265.995 231.184 265.995 225.956C265.995 220.727 261.755 216.488 256.525 216.488C251.295 216.488 247.055 220.727 247.055 225.956C247.055 231.184 251.295 235.423 256.525 235.423Z" fill="#3F3D56"/>
<path d="M467.838 188.485H377.841C376.756 188.485 375.715 188.054 374.948 187.287C374.181 186.52 373.75 185.48 373.75 184.396C373.75 183.311 374.181 182.271 374.948 181.504C375.715 180.737 376.756 180.306 377.841 180.306H467.838C468.923 180.306 469.963 180.737 470.73 181.504C471.498 182.271 471.929 183.311 471.929 184.396C471.929 185.48 471.498 186.52 470.73 187.287C469.963 188.054 468.923 188.485 467.838 188.485Z" fill="#CCCCCC"/>
<path d="M409.033 171.105H377.841C376.756 171.105 375.715 170.674 374.948 169.907C374.181 169.14 373.75 168.1 373.75 167.015C373.75 165.931 374.181 164.89 374.948 164.124C375.715 163.357 376.756 162.926 377.841 162.926H409.033C410.118 162.926 411.158 163.357 411.926 164.124C412.693 164.89 413.124 165.931 413.124 167.015C413.124 168.1 412.693 169.14 411.926 169.907C411.158 170.674 410.118 171.105 409.033 171.105Z" fill="#CCCCCC"/>
<path d="M337.078 193.468C346.68 193.468 354.464 185.687 354.464 176.088C354.464 166.489 346.68 158.708 337.078 158.708C327.476 158.708 319.692 166.489 319.692 176.088C319.692 185.687 327.476 193.468 337.078 193.468Z" fill="#4CAF50"/>
<path d="M476.859 149.506H314.762C312.457 149.509 310.248 150.426 308.619 152.055C306.989 153.684 306.072 155.892 306.069 158.196V193.979C306.072 196.283 306.989 198.491 308.619 200.12C310.248 201.749 312.457 202.666 314.762 202.669H476.859C479.163 202.666 481.373 201.749 483.002 200.12C484.632 198.491 485.548 196.283 485.552 193.979V158.196C485.548 155.892 484.632 153.684 483.002 152.055C481.373 150.426 479.163 149.509 476.859 149.506ZM484.529 193.979C484.527 196.012 483.718 197.961 482.28 199.398C480.842 200.836 478.892 201.644 476.859 201.647H314.762C312.728 201.644 310.779 200.836 309.341 199.398C307.903 197.961 307.094 196.012 307.092 193.979V158.196C307.094 156.163 307.903 154.214 309.341 152.777C310.779 151.34 312.728 150.531 314.762 150.528H476.859C478.892 150.531 480.842 151.34 482.28 152.777C483.718 154.214 484.527 156.163 484.529 158.196V193.979Z" fill="#3F3D56"/>
<path d="M484.529 163.819C491.024 163.819 496.29 158.555 496.29 152.062C496.29 145.569 491.024 140.305 484.529 140.305C478.034 140.305 472.768 145.569 472.768 152.062C472.768 158.555 478.034 163.819 484.529 163.819Z" fill="#4CAF50"/>
<path d="M484.168 158.674C484.12 158.627 484.082 158.571 484.057 158.508C484.031 158.446 484.018 158.38 484.018 158.313V145.3C484.018 145.165 484.072 145.035 484.168 144.939C484.263 144.843 484.394 144.789 484.529 144.789C484.665 144.789 484.795 144.843 484.891 144.939C484.987 145.035 485.04 145.165 485.04 145.3V158.313C485.04 158.414 485.01 158.513 484.954 158.597C484.898 158.681 484.818 158.746 484.725 158.785C484.631 158.824 484.529 158.834 484.429 158.814C484.33 158.794 484.239 158.746 484.168 158.674Z" fill="white"/>
<path d="M477.659 152.168C477.588 152.096 477.539 152.005 477.519 151.906C477.499 151.807 477.51 151.704 477.548 151.611C477.587 151.517 477.652 151.438 477.737 151.381C477.821 151.325 477.919 151.295 478.021 151.295H491.037C491.173 151.295 491.303 151.349 491.399 151.445C491.495 151.541 491.549 151.671 491.549 151.806C491.549 151.942 491.495 152.072 491.399 152.168C491.303 152.264 491.173 152.318 491.037 152.318H478.021C477.953 152.318 477.887 152.304 477.825 152.279C477.763 152.253 477.706 152.215 477.659 152.168Z" fill="white"/>
<path d="M498.608 308.334H474.059C474.059 309.04 448.757 309.612 448.757 309.612C448.36 309.911 447.998 310.254 447.678 310.635C446.717 311.781 446.192 313.229 446.195 314.724V315.747C446.196 317.441 446.869 319.066 448.068 320.264C449.266 321.462 450.892 322.136 452.587 322.136H498.608C500.303 322.135 501.928 321.461 503.126 320.263C504.325 319.065 504.999 317.441 505 315.747V314.724C504.998 313.03 504.324 311.406 503.125 310.209C501.927 309.011 500.303 308.337 498.608 308.334Z" fill="#3F3D56"/>
<path d="M479.174 321.883H472.527V364.822H479.174V321.883Z" fill="#3F3D56"/>
<path d="M498.094 364.589C498.094 365.307 488.021 364.866 475.595 364.866C463.169 364.866 453.096 365.307 453.096 364.589C453.096 363.871 463.169 358.177 475.595 358.177C488.021 358.177 498.094 363.871 498.094 364.589Z" fill="#3F3D56"/>
<path d="M477.983 250.791C485.891 250.791 492.301 244.383 492.301 236.478C492.301 228.573 485.891 222.165 477.983 222.165C470.076 222.165 463.666 228.573 463.666 236.478C463.666 244.383 470.076 250.791 477.983 250.791Z" fill="#2F2E41"/>
<path d="M442.353 358.941L436.084 358.94L433.101 334.768L442.354 334.768L442.353 358.941Z" fill="#FFB8B8"/>
<path d="M431.606 357.15H443.696V364.76H423.993C423.993 362.742 424.795 360.806 426.223 359.379C427.65 357.952 429.587 357.15 431.606 357.15Z" fill="#2F2E41"/>
<path d="M432.567 355.443L426.585 353.566L430.979 329.61L439.807 332.379L432.567 355.443Z" fill="#FFB8B8"/>
<path d="M422.849 350.518L434.385 354.137L432.105 361.398L413.307 355.5C413.911 353.574 415.256 351.968 417.046 351.033C418.835 350.099 420.923 349.914 422.849 350.518Z" fill="#2F2E41"/>
<path d="M481.819 304.144C481.674 302.926 481.414 301.724 481.042 300.556L479.871 299.083L476.823 295.26L476.69 295.265C476.465 295.275 475.529 295.326 474.082 295.439H474.067C473.172 295.51 472.078 295.602 470.835 295.72C470.508 295.756 470.165 295.786 469.812 295.822V301.159H476.204C476.515 301.159 476.815 301.272 477.048 301.478C477.281 301.683 477.432 301.965 477.472 302.273C477.477 302.329 477.483 302.381 477.483 302.437C477.482 302.776 477.348 303.101 477.108 303.34C476.868 303.58 476.543 303.715 476.204 303.715H439.08C438.607 304.029 438.153 304.37 437.72 304.737C436.412 305.749 435.47 307.16 435.036 308.755C432.868 318.283 428.915 336.052 427.749 341.272C427.664 341.665 427.683 342.073 427.805 342.457C427.926 342.84 428.144 343.186 428.439 343.459C428.657 343.662 428.912 343.82 429.191 343.925L433.803 345.652C433.993 345.722 434.19 345.769 434.391 345.79C434.417 345.79 434.437 345.795 434.463 345.795C434.511 345.8 434.558 345.801 434.606 345.801C435.072 345.799 435.527 345.656 435.911 345.392C436.296 345.127 436.591 344.753 436.759 344.318L440.4 334.769L446.009 320.047L448.228 314.225C450.8 314.828 472.379 319.602 479.605 311.909C480.317 311.151 480.88 310.265 481.262 309.297C481.87 307.652 482.061 305.881 481.819 304.144Z" fill="#2F2E41"/>
<path d="M488.078 305.535C487.965 305.08 487.837 304.609 487.689 304.134L483.47 298.838L483.338 298.843C483.071 298.859 481.809 298.925 479.871 299.084C477.672 299.268 474.599 299.564 471.147 300.029C471.045 300.039 470.938 300.055 470.835 300.07C470.498 300.116 470.155 300.162 469.812 300.213V301.159H476.204C476.515 301.159 476.815 301.273 477.048 301.478C477.281 301.683 477.432 301.965 477.472 302.273C477.477 302.33 477.483 302.381 477.483 302.437C477.483 302.776 477.348 303.101 477.108 303.34C476.868 303.58 476.543 303.715 476.204 303.715H453.613C452.626 304.037 451.675 304.374 450.765 304.737C445.989 306.629 442.414 309.108 441.683 312.333C441.438 313.417 441.167 314.608 440.88 315.876C439.817 320.589 438.523 326.36 437.352 331.605V331.61C437.112 332.694 436.871 333.747 436.641 334.769C435.665 339.166 434.836 342.892 434.396 344.85C434.386 344.906 434.376 344.957 434.366 345.013V345.024C434.315 345.42 434.364 345.822 434.509 346.194L434.514 346.199V346.204C434.655 346.561 434.883 346.876 435.179 347.119C435.376 347.282 435.599 347.412 435.839 347.503L440.451 349.231C440.708 349.327 440.979 349.377 441.254 349.379C441.638 349.38 442.016 349.283 442.353 349.098C442.836 348.836 443.21 348.41 443.406 347.896L453.337 321.846L454.876 317.803C457.448 318.406 479.027 323.176 486.252 315.487C487.68 313.943 488.494 311.931 488.543 309.829C488.593 308.382 488.437 306.936 488.078 305.535Z" fill="#2F2E41"/>
<path d="M487.51 260.438C487.428 260.341 487.341 260.244 487.249 260.152C485.887 258.72 484.206 257.632 482.342 256.975C480.478 256.319 478.485 256.113 476.526 256.374C474.818 256.598 473.125 256.931 471.459 257.371C469.307 257.924 467.336 259.029 465.742 260.576C464.5 261.78 463.522 263.228 462.87 264.83C462.218 266.431 461.905 268.151 461.953 269.879C461.973 270.58 461.978 271.295 461.968 272.021C461.968 272.359 461.963 272.701 461.958 273.044H467C467.219 273.043 467.437 273.069 467.649 273.12C468.265 273.267 468.813 273.617 469.205 274.113C469.597 274.609 469.811 275.223 469.812 275.855V299.636C470.155 299.733 470.498 299.83 470.835 299.932C470.943 299.968 471.045 299.998 471.147 300.029C471.265 300.065 471.382 300.101 471.495 300.136C472.533 300.458 473.547 300.799 474.537 301.159H476.204C476.515 301.159 476.815 301.272 477.048 301.477C477.281 301.683 477.432 301.965 477.472 302.273C477.82 302.411 478.158 302.549 478.49 302.687C479.671 303.178 480.791 303.669 481.819 304.144C483.205 304.778 484.437 305.381 485.47 305.908C485.795 306.073 486.154 306.161 486.518 306.163C486.997 306.162 487.463 306.008 487.848 305.724C487.928 305.665 488.004 305.602 488.078 305.535C488.351 305.278 488.558 304.959 488.68 304.604C488.802 304.25 488.836 303.871 488.778 303.5C488.25 299.485 488.096 295.429 488.318 291.385C488.461 287.986 488.768 284.499 489.167 281.131C489.382 279.306 489.622 277.517 489.873 275.794C490.113 274.148 490.369 272.568 490.619 271.076C490.948 269.183 490.839 267.24 490.3 265.396C489.761 263.552 488.806 261.856 487.51 260.438Z" fill="#4CAF50"/>
<path d="M466.55 260.857C466.288 260.745 466.018 260.651 465.742 260.576C464.379 260.209 462.93 260.344 461.659 260.957C460.388 261.57 459.38 262.62 458.818 263.914L455.305 272.021L454.866 273.044H467C467.219 273.043 467.437 273.069 467.649 273.12L468.058 272.175L469.613 268.586C470.23 267.155 470.255 265.537 469.68 264.088C469.106 262.639 467.98 261.477 466.55 260.857Z" fill="#4CAF50"/>
<path d="M477.46 252.382C484.396 252.382 490.019 246.761 490.019 239.827C490.019 232.893 484.396 227.272 477.46 227.272C470.524 227.272 464.901 232.893 464.901 239.827C464.901 246.761 470.524 252.382 477.46 252.382Z" fill="#FFB8B8"/>
<path d="M464.675 233.659C470.624 237.289 477.33 239.498 484.273 240.114L482.207 237.64C483.711 238.196 485.294 238.51 486.896 238.571C488.497 238.546 490.174 237.93 491.083 236.612C491.488 235.957 491.728 235.214 491.784 234.445C491.84 233.677 491.709 232.907 491.402 232.201C490.773 230.791 489.793 229.566 488.556 228.643C486.363 226.909 483.776 225.744 481.024 225.253C478.272 224.761 475.441 224.957 472.784 225.825C470.961 226.369 469.328 227.416 468.073 228.846C466.882 230.314 464.59 231.622 465.2 233.411L464.675 233.659Z" fill="#2F2E41"/>
<path d="M479.572 223.527C475.611 219.511 470.817 216.412 465.529 214.448C462.134 213.191 458.439 212.414 454.89 213.128C451.341 213.842 447.985 216.297 446.995 219.778C446.185 222.624 447.021 225.689 448.278 228.368C449.534 231.048 451.211 233.533 452.227 236.312C453.264 239.148 453.576 242.198 453.135 245.185C452.693 248.172 451.512 251.002 449.699 253.417C447.887 255.832 445.499 257.757 442.754 259.015C440.008 260.274 436.992 260.828 433.978 260.625C437.465 261.093 440.679 262.731 444.088 263.603C447.496 264.475 451.519 264.416 454.052 261.975C456.732 259.392 456.786 255.193 456.656 251.474C456.463 245.945 456.271 240.417 456.078 234.888C455.98 232.069 455.896 229.159 456.913 226.528C457.93 223.896 460.347 221.592 463.169 221.616C465.308 221.634 467.201 222.929 468.916 224.206C470.631 225.484 472.447 226.846 474.577 227.036C476.707 227.226 479.14 225.65 478.98 223.518L479.572 223.527Z" fill="#2F2E41"/>
<path d="M489.872 275.794L482.703 275.988L482.182 281.023L482.064 282.189L470.835 287.229L469.812 287.689V296.65L470.835 296.359L474.067 295.439H474.082L488.318 291.385L488.481 291.339C489.632 291.007 490.644 290.313 491.368 289.36C492.092 288.406 492.49 287.245 492.501 286.048L492.536 280.103L492.567 275.722L489.872 275.794Z" fill="#FFB8B8"/>
<path d="M492.204 265.836C492.109 264.28 491.398 262.825 490.23 261.792C489.061 260.759 487.53 260.232 485.973 260.328C484.417 260.424 482.961 261.134 481.928 262.302C480.895 263.47 480.368 265 480.464 266.557L481.246 279.316C481.267 279.652 481.362 279.979 481.524 280.274C481.685 280.569 481.91 280.825 482.182 281.023C482.614 281.345 483.147 281.503 483.685 281.468L489.167 281.131L490.829 281.028C491.131 281.013 491.428 280.937 491.7 280.805C491.973 280.672 492.216 280.486 492.414 280.256C492.458 280.208 492.499 280.157 492.536 280.103C492.862 279.668 493.021 279.132 492.986 278.59L492.204 265.836Z" fill="#4CAF50"/>
<path d="M471.495 300.137H470.835V300.07C470.498 300.116 470.155 300.162 469.812 300.213V301.159H474.537C473.545 300.801 472.531 300.46 471.495 300.137ZM471.495 300.137H470.835V300.07C470.498 300.116 470.155 300.162 469.812 300.213V301.159H474.537C473.545 300.801 472.531 300.46 471.495 300.137ZM476.204 300.137H470.835V275.855C470.833 275.024 470.562 274.216 470.061 273.552C469.56 272.888 468.857 272.405 468.058 272.175C467.715 272.071 467.359 272.02 467 272.021H421.49C420.473 272.023 419.499 272.427 418.78 273.146C418.061 273.864 417.656 274.839 417.655 275.855V300.903C417.655 301.92 418.06 302.895 418.779 303.614C419.498 304.333 420.473 304.737 421.49 304.737H476.204C476.771 304.736 477.317 304.527 477.739 304.149C478.16 303.77 478.428 303.25 478.49 302.687C478.5 302.604 478.505 302.521 478.505 302.437C478.504 301.827 478.262 301.242 477.83 300.811C477.399 300.38 476.814 300.137 476.204 300.137ZM477.483 302.437C477.483 302.776 477.348 303.101 477.108 303.34C476.868 303.58 476.543 303.715 476.204 303.715H421.49C420.744 303.714 420.029 303.418 419.502 302.891C418.975 302.364 418.678 301.649 418.678 300.903V275.855C418.678 275.11 418.975 274.395 419.502 273.868C420.029 273.341 420.744 273.044 421.49 273.044H467C467.219 273.043 467.437 273.069 467.649 273.12C468.265 273.267 468.813 273.617 469.205 274.113C469.597 274.609 469.811 275.223 469.812 275.855V301.159H476.204C476.515 301.159 476.815 301.273 477.048 301.478C477.281 301.683 477.432 301.965 477.472 302.273C477.477 302.33 477.483 302.381 477.483 302.437ZM471.495 300.137H470.835V300.07C470.498 300.116 470.155 300.162 469.812 300.213V301.159H474.537C473.545 300.801 472.531 300.46 471.495 300.137Z" fill="#3F3D56"/>
<path d="M444.243 291.447C445.938 291.447 447.311 290.074 447.311 288.38C447.311 286.686 445.938 285.313 444.243 285.313C442.549 285.313 441.175 286.686 441.175 288.38C441.175 290.074 442.549 291.447 444.243 291.447Z" fill="#4CAF50"/>
<path d="M170.204 36.4822C170.192 36.7157 170.2 36.9498 170.225 37.1823L154.168 50.654L149.379 48.9208L145.818 55.8032L156.287 60.7849L173.842 41.0922C174.728 41.253 175.642 41.1402 176.463 40.7687C177.284 40.3973 177.972 39.785 178.436 39.013C178.9 38.2411 179.118 37.3463 179.061 36.4475C179.004 35.5487 178.675 34.6886 178.117 33.9815C177.559 33.2744 176.799 32.7539 175.938 32.4891C175.077 32.2244 174.155 32.228 173.296 32.4995C172.437 32.771 171.681 33.2974 171.129 34.0088C170.577 34.7203 170.254 35.583 170.204 36.4822Z" fill="#FFB8B8"/>
<path d="M148.668 59.1046L133.162 53.5095C131.739 52.9958 130.578 51.9379 129.934 50.5684C129.291 49.1989 129.218 47.6301 129.732 46.207C130.246 44.7839 131.304 43.6232 132.674 42.9801C134.044 42.3371 135.614 42.2644 137.037 42.778L152.543 48.3731C152.778 48.4579 152.994 48.5881 153.179 48.7562C153.363 48.9244 153.513 49.1273 153.619 49.3533C153.725 49.5794 153.786 49.8241 153.797 50.0735C153.809 50.3229 153.771 50.5722 153.686 50.807L151.103 57.9616C150.931 58.4355 150.579 58.822 150.122 59.0362C149.666 59.2505 149.143 59.2751 148.668 59.1046Z" fill="#81C784"/>
<path d="M137.312 113.612L142.494 113.611L144.959 93.629L137.311 93.6295L137.312 113.612Z" fill="#FFB8B8"/>
<path d="M152.489 118.421L136.202 118.422L136.201 112.131L146.196 112.131C147.865 112.131 149.465 112.794 150.645 113.973C151.825 115.153 152.488 116.753 152.489 118.421Z" fill="#2F2E41"/>
<path d="M124.505 106.919L128.744 109.899L142.258 94.9709L136.002 90.5737L124.505 106.919Z" fill="#FFB8B8"/>
<path d="M133.641 118.558L120.317 109.194L123.937 104.048L132.112 109.794C133.478 110.754 134.406 112.216 134.692 113.86C134.979 115.503 134.6 117.194 133.641 118.558Z" fill="#2F2E41"/>
<path d="M148.651 77.6163C148.651 77.6163 161.584 76.091 159.263 84.4803C156.941 92.8696 131.077 100.115 131.077 100.115L148.651 77.6163Z" fill="#FFB8B8"/>
<path d="M139.75 34.8099C145.484 34.8099 150.132 30.1633 150.132 24.4314C150.132 18.6995 145.484 14.0529 139.75 14.0529C134.016 14.0529 129.368 18.6995 129.368 24.4314C129.368 30.1633 134.016 34.8099 139.75 34.8099Z" fill="#FFB8B8"/>
<path d="M106.027 103.321C100.12 96.4449 98.0527 85.8912 107.474 77.1136C109.8 74.999 112.435 73.2501 115.287 71.9265L122.88 50.6994C123.668 48.4827 125.114 46.5592 127.025 45.1854C128.935 43.8116 131.219 43.0528 133.572 43.0103C135.857 42.9117 138.116 43.5226 140.04 44.7591C141.963 45.9957 143.456 47.7971 144.314 49.9161C145.241 52.0719 145.348 54.4923 144.612 56.7209C142.352 63.7574 139.384 70.5467 135.753 76.9844L136.146 80.1243L155.338 81.8294L155.159 82.1204C155.065 82.2722 145.672 96.5786 133.656 106.075C129.548 109.322 125.299 110.667 121.29 110.667C115.209 110.666 109.679 107.572 106.027 103.321Z" fill="#81C784"/>
<path d="M104.83 27.6875C106.667 25.4995 107.455 22.6377 108.089 19.8525C109.091 15.4457 109.867 10.8889 112.095 6.95631C114.323 3.02377 118.417 -0.234746 122.931 0.0132863C127.419 0.259902 131.048 3.86973 132.974 7.97699C133.44 7.7959 133.94 7.71477 134.439 7.73886C134.939 7.76295 135.428 7.89172 135.875 8.11683C137.263 8.87679 137.782 11.0368 136.627 12.1182C137.842 11.5397 139.166 11.2234 140.511 11.1898C141.857 11.1563 143.195 11.4063 144.437 11.9235C146.035 12.6036 147.414 13.7111 148.423 15.1242C149.432 16.5373 150.032 18.2012 150.156 19.9329C150.204 20.6357 150.108 21.341 149.872 22.0051C149.637 22.6691 149.268 23.2778 148.787 23.7933C146.795 25.8433 143.978 25.1361 141.473 24.6139C139.107 24.1207 136.225 23.9875 134.892 26.2412C134.367 27.1803 134.22 28.2844 134.481 29.3281C134.992 31.5779 136.658 33.1449 138.274 34.6447L138.539 35.1357C132.831 36.2483 126.599 32.3517 125.102 26.7346C123.605 21.1175 127.071 14.6374 132.576 12.7636C132.209 12.775 131.847 12.6884 131.525 12.5128C131.203 12.3371 130.934 12.0788 130.746 11.7645C130.558 11.4502 130.457 11.0913 130.453 10.7249C130.45 10.3585 130.545 9.99793 130.728 9.68037C129.204 8.82706 127.48 8.39697 125.734 8.43476C122.89 8.62122 120.43 10.6445 118.95 13.0788C117.47 15.5131 116.8 18.3386 116.121 21.1052C115.443 23.8717 114.708 26.6911 113.126 29.0602C112.03 30.701 110.566 32.0631 108.85 33.0378C107.134 34.0124 105.214 34.5726 103.243 34.6736C101.272 34.7747 99.3044 34.4138 97.4977 33.6199C95.691 32.8259 94.095 31.6207 92.8369 30.1006C94.825 31.0643 97.0743 31.3501 99.2403 30.9143C101.406 30.4785 103.37 29.345 104.83 27.6875Z" fill="#2F2E41"/>
<path d="M181.083 55.9714C189.417 55.9714 196.174 49.2172 196.174 40.8854C196.174 32.5537 189.417 25.7994 181.083 25.7994C172.748 25.7994 165.992 32.5537 165.992 40.8854C165.992 49.2172 172.748 55.9714 181.083 55.9714Z" fill="#4CAF50"/>
<path d="M180.619 49.3697C180.558 49.3089 180.509 49.2366 180.476 49.157C180.443 49.0774 180.426 48.992 180.427 48.9059V32.2091C180.427 32.0351 180.496 31.8683 180.619 31.7453C180.742 31.6223 180.909 31.5532 181.083 31.5532C181.257 31.5532 181.423 31.6223 181.546 31.7453C181.67 31.8683 181.739 32.0351 181.739 32.2091V48.9059C181.739 49.0356 181.7 49.1624 181.628 49.2702C181.556 49.3781 181.453 49.4622 181.334 49.5118C181.214 49.5614 181.082 49.5744 180.955 49.5491C180.827 49.5239 180.71 49.4614 180.619 49.3697Z" fill="white"/>
<path d="M172.268 41.0213C172.176 40.9295 172.114 40.8127 172.088 40.6854C172.063 40.5582 172.076 40.4263 172.126 40.3065C172.175 40.1867 172.259 40.0842 172.367 40.0122C172.475 39.9401 172.602 39.9016 172.732 39.9016H189.434C189.608 39.9016 189.775 39.9707 189.898 40.0937C190.021 40.2167 190.09 40.3835 190.09 40.5575C190.09 40.7314 190.021 40.8982 189.898 41.0212C189.775 41.1442 189.608 41.2133 189.434 41.2133H172.732C172.646 41.2135 172.56 41.1966 172.481 41.1636C172.401 41.1306 172.329 41.0823 172.268 41.0213Z" fill="white"/>
<path d="M170.724 50.976C170.614 51.1826 170.521 51.3975 170.445 51.6187L150.183 56.9902L146.585 53.3867L140.436 58.1034L147.794 67.0611L172.057 56.6946C172.791 57.2168 173.666 57.5031 174.567 57.5157C175.468 57.5282 176.351 57.2663 177.1 56.7648C177.848 56.2633 178.426 55.5459 178.756 54.7081C179.087 53.8703 179.154 52.9517 178.95 52.0746C178.745 51.1975 178.279 50.4034 177.612 49.7979C176.945 49.1924 176.109 48.8042 175.216 48.6849C174.324 48.5657 173.415 48.721 172.613 49.1302C171.81 49.5395 171.152 50.1833 170.724 50.976Z" fill="#FFB8B8"/>
<path d="M141.612 62.3026L129.955 50.6496C129.424 50.1202 129.002 49.4912 128.714 48.7987C128.426 48.1062 128.278 47.3638 128.277 46.6138C128.276 45.8639 128.424 45.1212 128.711 44.4282C128.997 43.7352 129.418 43.1055 129.948 42.5752C130.479 42.0449 131.109 41.6244 131.802 41.3377C132.495 41.051 133.238 40.9038 133.988 40.9044C134.739 40.9051 135.481 41.0536 136.174 41.3415C136.867 41.6293 137.496 42.0509 138.025 42.5821L149.682 54.2352C149.859 54.4117 149.999 54.6213 150.094 54.852C150.19 55.0827 150.239 55.3299 150.239 55.5796C150.239 55.8293 150.19 56.0766 150.094 56.3072C149.999 56.5379 149.859 56.7475 149.682 56.9241L144.302 62.3026C143.945 62.6586 143.461 62.8585 142.957 62.8585C142.453 62.8585 141.969 62.6586 141.612 62.3026Z" fill="#81C784"/>
</g>
<defs>
<clipPath id="clip0_166_30">
<rect width="505" height="365" fill="white"/>
</clipPath>
</defs>
</svg>
