<svg width="252" height="38" viewBox="0 0 252 38" fill="none" xmlns="http://www.w3.org/2000/svg">
<path d="M1.16 11.272C1.16 7.848 2.648 5.16 5.624 3.208C8.6 1.256 12.024 0.279998 15.896 0.279998C20.856 0.279998 25.208 1.704 28.952 4.552C30.808 5.992 32.248 7.912 33.272 10.312C34.296 12.68 34.808 15.304 34.808 18.184C34.808 23.848 33.192 28.456 29.96 32.008C26.6 35.624 22.392 37.432 17.336 37.432C16.216 37.432 15.032 37.288 13.784 37C12.536 36.712 11.544 36.328 10.808 35.848C9.624 36.744 8.104 37.192 6.248 37.192C4.424 37.192 3 36.68 1.976 35.656C0.952 34.632 0.44 33.32 0.44 31.72C0.44 27.944 3.304 24.728 9.032 22.072C9.192 20.728 9.416 18.92 9.704 16.648C10.024 14.344 10.264 12.488 10.424 11.08C10.616 9.672 10.744 8.744 10.808 8.296C12.12 7.464 13.64 7.048 15.368 7.048C16.168 7.048 16.936 7.128 17.672 7.288L14.648 27.784C14.36 29.608 13.96 31.128 13.448 32.344C14.44 32.6 15.24 32.728 15.848 32.728C19.528 32.728 22.376 31.336 24.392 28.552C26.472 25.64 27.512 22.12 27.512 17.992C27.512 12.712 25.608 8.92 21.8 6.616C19.688 5.336 17.368 4.696 14.84 4.696C11.608 4.696 9.048 5.576 7.16 7.336C6.072 8.328 5.528 9.528 5.528 10.936C5.528 11.672 5.752 12.376 6.2 13.048C6.648 13.688 7.432 14.056 8.552 14.152L8.072 17.272C5.736 17.144 3.992 16.504 2.84 15.352C1.72 14.168 1.16 12.808 1.16 11.272ZM3.992 31.096C3.992 32.248 4.536 32.824 5.624 32.824C6.072 32.824 6.536 32.536 7.016 31.96C7.528 31.352 7.88 30.408 8.072 29.128L8.504 26.152C5.496 27.848 3.992 29.496 3.992 31.096ZM50.4628 20.2C50.4628 18.792 49.8068 18.088 48.4948 18.088C47.2148 18.088 46.1908 18.92 45.4228 20.584C48.8788 23.304 50.6068 26.36 50.6068 29.752C50.6068 32.216 49.9188 34.088 48.5428 35.368C47.1668 36.648 45.4388 37.288 43.3588 37.288C41.2788 37.288 39.7588 36.648 38.7988 35.368C37.8388 34.056 37.3588 32.408 37.3588 30.424C37.3588 29.816 37.3748 29.368 37.4068 29.08L39.0868 14.44C40.2388 14.088 41.4068 13.912 42.5908 13.912C44.5428 13.912 45.5188 14.632 45.5188 16.072V16.168C46.7988 14.664 48.4308 13.912 50.4148 13.912C51.8548 13.912 52.9748 14.248 53.7748 14.92C54.5748 15.56 54.9748 16.424 54.9748 17.512C54.9748 18.6 54.5588 19.496 53.7268 20.2C52.9268 20.872 51.8708 21.208 50.5588 21.208C50.4948 21.208 50.4308 21.208 50.3668 21.208C50.4308 20.856 50.4628 20.52 50.4628 20.2ZM47.4868 29.512C47.4868 27.656 46.5268 25.8 44.6068 23.944C44.0308 28.552 43.7428 30.872 43.7428 30.904C43.7428 32.248 44.2868 32.92 45.3748 32.92C46.7828 32.92 47.4868 31.784 47.4868 29.512ZM65.012 26.248C66.996 25.832 68.468 25.032 69.428 23.848C70.42 22.664 70.916 21.528 70.916 20.44C70.916 19.32 70.612 18.568 70.004 18.184C69.428 17.768 68.788 17.56 68.084 17.56C66.58 17.56 65.252 18.408 64.1 20.104C62.98 21.768 62.42 23.768 62.42 26.104C62.42 28.408 62.964 30.136 64.052 31.288C65.172 32.408 66.548 32.968 68.18 32.968C70.58 32.968 72.884 32.136 75.092 30.472C77.3 28.808 79.092 26.632 80.468 23.944C81.172 24.616 81.812 25.448 82.388 26.44C81.332 28.84 79.46 31.192 76.772 33.496C75.428 34.616 73.828 35.528 71.972 36.232C70.148 36.936 68.26 37.288 66.308 37.288C63.108 37.288 60.58 36.312 58.724 34.36C56.74 32.248 55.748 29.544 55.748 26.248C55.748 22.952 56.98 20.072 59.444 17.608C61.94 15.144 64.916 13.912 68.372 13.912C70.836 13.912 72.836 14.456 74.372 15.544C75.908 16.6 76.692 18.04 76.724 19.864C76.724 22.328 75.732 24.328 73.748 25.864C71.796 27.4 69.108 28.472 65.684 29.08L65.012 26.248ZM99.8034 37.24C96.8594 37.24 94.9074 36.216 93.9474 34.168C92.2834 36.248 90.1394 37.288 87.5154 37.288C84.9234 37.288 82.7314 36.408 80.9394 34.648C79.1794 32.888 78.2994 30.568 78.2994 27.688C78.2994 23.496 79.5314 20.152 81.9954 17.656C84.4594 15.16 87.5794 13.912 91.3554 13.912C91.4514 13.912 91.5474 13.912 91.6434 13.912C93.2434 13.912 94.7154 14.184 96.0594 14.728C96.9234 14.184 97.9634 13.912 99.1794 13.912C100.427 13.912 101.323 14.072 101.867 14.392C101.579 16.76 101.275 19.096 100.955 21.4C100.635 23.672 100.411 25.288 100.283 26.248C99.9954 28.424 99.8514 29.992 99.8514 30.952C99.8514 32.232 100.363 32.872 101.387 32.872C102.187 32.872 103.035 32.344 103.931 31.288C104.827 30.2 105.611 28.504 106.283 26.2C107.211 27.032 107.851 27.96 108.203 28.984C107.275 32.024 106.027 34.168 104.459 35.416C102.891 36.632 101.339 37.24 99.8034 37.24ZM92.0754 17.656C90.0274 17.656 88.3954 18.44 87.1794 20.008C85.9954 21.544 85.2914 23.848 85.0674 26.92C85.0354 27.208 85.0194 27.48 85.0194 27.736C85.0194 29.304 85.3874 30.552 86.1234 31.48C86.8914 32.408 87.8674 32.872 89.0514 32.872C91.0674 32.872 92.5874 31.448 93.6114 28.6L94.7634 18.232C93.8354 17.848 92.9394 17.656 92.0754 17.656ZM118.276 37L120.1 21.064C120.1 20.168 119.876 19.432 119.428 18.856C119.012 18.248 118.26 17.944 117.172 17.944C116.084 17.944 115.188 18.472 114.484 19.528C113.78 20.552 113.332 21.64 113.14 22.792C112.02 30.76 111.396 35.496 111.268 37H104.836L107.476 14.44C108.82 14.088 109.844 13.912 110.548 13.912C112.564 13.912 113.668 14.584 113.86 15.928C115.428 14.584 117.14 13.912 118.996 13.912C122.708 13.912 125.076 15.016 126.1 17.224C127.668 14.984 129.908 13.864 132.82 13.864C134.964 13.864 136.66 14.424 137.908 15.544C139.156 16.632 139.78 18.008 139.78 19.672C139.78 20.152 139.684 21 139.492 22.216C138.756 27.016 138.388 29.832 138.388 30.664C138.388 32.168 138.884 32.92 139.876 32.92C140.708 32.92 141.588 32.376 142.516 31.288C143.476 30.168 144.244 28.456 144.82 26.152C145.908 27.304 146.564 28.216 146.788 28.888C145.124 34.456 142.18 37.24 137.956 37.24C135.972 37.24 134.5 36.632 133.54 35.416C132.58 34.2 132.1 32.92 132.1 31.576L133.252 20.968C133.252 20.104 133.028 19.384 132.58 18.808C132.132 18.232 131.412 17.944 130.42 17.944C129.46 17.944 128.612 18.312 127.876 19.048C127.14 19.784 126.628 20.728 126.34 21.88C125.38 30.008 124.756 35.048 124.468 37H118.276Z" fill="#81C784"/>
<path d="M154.214 6.184C153.542 7.656 152.55 8.872 151.238 9.832C149.926 10.792 148.502 11.272 146.966 11.272C145.43 11.272 144.166 10.824 143.174 9.928C142.214 9.032 141.734 7.704 141.734 5.944C141.734 4.184 142.518 2.84 144.086 1.912C145.654 0.951999 147.494 0.471998 149.606 0.471998H168.662C168.758 0.919998 168.806 1.352 168.806 1.768C168.806 2.856 168.454 3.864 167.75 4.792C167.046 5.72 165.974 6.184 164.534 6.184C164.47 6.184 164.422 6.184 164.39 6.184H154.214ZM147.974 6.184C146.79 6.184 146.198 6.6 146.198 7.432C146.198 8.104 146.71 8.44 147.734 8.44C148.214 8.44 148.774 8.232 149.414 7.816C150.086 7.4 150.646 6.856 151.094 6.184H147.974ZM157.91 27.784C157.11 34.056 154.278 37.192 149.414 37.192C147.686 37.192 146.294 36.664 145.238 35.608C144.214 34.552 143.702 33.224 143.702 31.624C143.702 27.88 146.55 24.68 152.246 22.024L153.926 9.256C155.238 8.424 156.758 8.008 158.486 8.008C159.286 8.008 160.054 8.088 160.79 8.248L157.91 27.784ZM151.718 26.104C148.742 27.832 147.254 29.496 147.254 31.096C147.254 32.248 147.814 32.824 148.934 32.824C150.214 32.824 151.014 31.592 151.334 29.128L151.718 26.104ZM169.262 26.248C171.246 25.832 172.718 25.032 173.678 23.848C174.67 22.664 175.166 21.528 175.166 20.44C175.166 19.32 174.862 18.568 174.254 18.184C173.678 17.768 173.038 17.56 172.334 17.56C170.83 17.56 169.502 18.408 168.35 20.104C167.23 21.768 166.67 23.768 166.67 26.104C166.67 28.408 167.214 30.136 168.302 31.288C169.422 32.408 170.798 32.968 172.43 32.968C174.83 32.968 177.134 32.136 179.342 30.472C181.55 28.808 183.342 26.632 184.718 23.944C185.422 24.616 186.062 25.448 186.638 26.44C185.582 28.84 183.71 31.192 181.022 33.496C179.678 34.616 178.078 35.528 176.222 36.232C174.398 36.936 172.51 37.288 170.558 37.288C167.358 37.288 164.83 36.312 162.974 34.36C160.99 32.248 159.998 29.544 159.998 26.248C159.998 22.952 161.23 20.072 163.694 17.608C166.19 15.144 169.166 13.912 172.622 13.912C175.086 13.912 177.086 14.456 178.622 15.544C180.158 16.6 180.942 18.04 180.974 19.864C180.974 22.328 179.982 24.328 177.998 25.864C176.046 27.4 173.358 28.472 169.934 29.08L169.262 26.248ZM204.053 37.24C201.109 37.24 199.157 36.216 198.197 34.168C196.533 36.248 194.389 37.288 191.765 37.288C189.173 37.288 186.981 36.408 185.189 34.648C183.429 32.888 182.549 30.568 182.549 27.688C182.549 23.496 183.781 20.152 186.245 17.656C188.709 15.16 191.829 13.912 195.605 13.912C195.701 13.912 195.797 13.912 195.893 13.912C197.493 13.912 198.965 14.184 200.309 14.728C201.173 14.184 202.213 13.912 203.429 13.912C204.677 13.912 205.573 14.072 206.117 14.392C205.829 16.76 205.525 19.096 205.205 21.4C204.885 23.672 204.661 25.288 204.533 26.248C204.245 28.424 204.101 29.992 204.101 30.952C204.101 32.232 204.613 32.872 205.637 32.872C206.437 32.872 207.285 32.344 208.181 31.288C209.077 30.2 209.861 28.504 210.533 26.2C211.461 27.032 212.101 27.96 212.453 28.984C211.525 32.024 210.277 34.168 208.709 35.416C207.141 36.632 205.589 37.24 204.053 37.24ZM196.325 17.656C194.277 17.656 192.645 18.44 191.429 20.008C190.245 21.544 189.541 23.848 189.317 26.92C189.285 27.208 189.269 27.48 189.269 27.736C189.269 29.304 189.637 30.552 190.373 31.48C191.141 32.408 192.117 32.872 193.301 32.872C195.317 32.872 196.837 31.448 197.861 28.6L199.013 18.232C198.085 17.848 197.189 17.656 196.325 17.656ZM222.526 37L224.35 21.064C224.35 20.168 224.126 19.432 223.678 18.856C223.262 18.248 222.51 17.944 221.422 17.944C220.334 17.944 219.438 18.472 218.734 19.528C218.03 20.552 217.582 21.64 217.39 22.792C216.27 30.76 215.646 35.496 215.518 37H209.086L211.726 14.44C213.07 14.088 214.094 13.912 214.798 13.912C216.814 13.912 217.918 14.584 218.11 15.928C219.678 14.584 221.39 13.912 223.246 13.912C226.958 13.912 229.326 15.016 230.35 17.224C231.918 14.984 234.158 13.864 237.07 13.864C239.214 13.864 240.91 14.424 242.158 15.544C243.406 16.632 244.03 18.008 244.03 19.672C244.03 20.152 243.934 21 243.742 22.216C243.006 27.016 242.638 29.832 242.638 30.664C242.638 32.168 243.134 32.92 244.126 32.92C244.958 32.92 245.838 32.376 246.766 31.288C247.726 30.168 248.494 28.456 249.07 26.152C250.158 27.304 250.814 28.216 251.038 28.888C249.374 34.456 246.43 37.24 242.206 37.24C240.222 37.24 238.75 36.632 237.79 35.416C236.83 34.2 236.35 32.92 236.35 31.576L237.502 20.968C237.502 20.104 237.278 19.384 236.83 18.808C236.382 18.232 235.662 17.944 234.67 17.944C233.71 17.944 232.862 18.312 232.126 19.048C231.39 19.784 230.878 20.728 230.59 21.88C229.63 30.008 229.006 35.048 228.718 37H222.526Z" fill="#4CAF50"/>
</svg>
