<svg width="590" height="431" viewBox="0 0 590 431" fill="none" xmlns="http://www.w3.org/2000/svg">
<g clip-path="url(#clip0_12_4)">
<path d="M329.322 424.176C446.571 424.176 541.62 329.221 541.62 212.088C541.62 94.9551 446.571 0 329.322 0C212.073 0 117.023 94.9551 117.023 212.088C117.023 329.221 212.073 424.176 329.322 424.176Z" fill="#F2F2F2"/>
<path d="M394.207 132.485C424.698 132.485 449.416 107.791 449.416 77.3304C449.416 46.8696 424.698 22.1761 394.207 22.1761C363.716 22.1761 338.998 46.8696 338.998 77.3304C338.998 107.791 363.716 132.485 394.207 132.485Z" fill="#FF6584"/>
<path d="M162.76 41.2142L164.269 72.6444C170.525 80.9796 177.273 90.5178 183.934 100.913L184.885 52.9631L185.41 53.2981C177.705 47.7998 169.874 43.5931 162.236 40.9229L162.76 41.2142Z" fill="#4CAF50"/>
<path d="M163.169 71.1842L161.708 40.7386C153.13 37.816 144.807 36.8465 137.199 38.2019C136.803 38.2725 136.414 38.3536 136.025 38.436C137.959 40.5078 149.224 52.7438 163.169 71.1842Z" fill="#4CAF50"/>
<path d="M232.433 108.682L232.939 109.164C230.86 105.258 228.656 101.46 226.328 97.7706L212.142 153.535L211.902 153.323C212.927 155.77 213.903 158.199 214.828 160.612L232.433 108.682Z" fill="#4CAF50"/>
<path d="M210.822 76.9788L211.344 77.3965C203.844 68.5188 195.318 60.5597 185.943 53.6855L184.974 102.549C191.172 112.321 196.721 121.946 201.622 131.424L210.822 76.9788Z" fill="#4CAF50"/>
<path d="M107.915 92.2343C108.712 100.47 110.34 108.605 112.774 116.514L197.369 125.231C192.953 117.095 188.394 109.462 183.968 102.505L108.13 92.8987L107.915 92.2343Z" fill="#4CAF50"/>
<path d="M115.851 125.635L115.623 124.971L201.242 132.574C200.208 130.553 199.162 128.559 198.104 126.591L113.196 117.842L112.973 117.178C113.829 119.965 114.788 122.784 115.851 125.635Z" fill="#4CAF50"/>
<path d="M225.364 96.6079L225.879 97.0613C221.634 90.3917 216.943 84.0159 211.839 77.9773L202.514 133.159C205.746 139.497 208.673 145.747 211.296 151.907L225.364 96.6079Z" fill="#4CAF50"/>
<path d="M223.553 188.786C226.956 203.496 228.245 217.405 227.394 230.358C232.182 220.167 250.39 177.946 243.584 138.598L223.553 188.786Z" fill="#4CAF50"/>
<path d="M131.558 155.374C136.088 161.47 141.022 167.257 146.327 172.694L146.12 171.957L222.281 187.609C220.299 179.395 217.827 171.308 214.876 163.389L131.558 155.374Z" fill="#4CAF50"/>
<path d="M162.512 71.6977C147.419 51.7502 135.51 39.1425 135.338 38.962L135.535 38.5418C124.081 41.1395 115.994 48.9245 111.545 60.1926L162.512 71.6977Z" fill="#4CAF50"/>
<path d="M215.533 162.484C215.814 163.234 216.1 163.986 216.371 164.733C218.987 171.892 221.211 179.187 223.032 186.587L242.873 136.875L243.357 137.361C242.101 130.443 239.973 123.712 237.023 117.329C235.853 114.827 234.628 112.362 233.348 109.934L215.533 162.484Z" fill="#4CAF50"/>
<path d="M183.082 101.119C176.49 90.8467 169.818 81.4232 163.634 73.1861L111.497 61.4168L111.32 60.7594C108.065 69.3223 106.875 79.8417 107.861 91.5909L183.082 101.119Z" fill="#4CAF50"/>
<path d="M222.589 188.915L146.986 173.377C178.786 205.989 223.277 231 226.117 232.581C227.441 218.212 225.939 203.454 222.589 188.915Z" fill="#4CAF50"/>
<path d="M214.34 162.05L214.357 162.001C210.722 152.426 206.573 143.055 201.929 133.926L116.1 126.305C117.557 130.16 119.204 134.056 121.04 137.993C123.715 143.603 126.897 148.957 130.546 153.989L214.34 162.05Z" fill="#4CAF50"/>
<path d="M323.519 147.08L304.615 172.249C304.111 182.655 303.219 194.301 301.712 206.551L333.058 170.226L333.248 170.819C330.825 161.675 327.479 153.445 323.301 146.521L323.519 147.08Z" fill="#4CAF50"/>
<path d="M304.7 170.424L323.012 146.043C318.271 138.327 312.48 132.276 305.755 128.473C305.405 128.275 305.054 128.089 304.702 127.905C304.868 130.733 305.732 147.335 304.7 170.424Z" fill="#4CAF50"/>
<path d="M334.106 243.437L334.187 244.131C335.08 239.798 335.808 235.469 336.37 231.144L289.841 265.053L289.792 264.737C289.02 267.275 288.22 269.768 287.392 272.216L334.106 243.437Z" fill="#4CAF50"/>
<path d="M337.702 205.25L337.837 205.904C337.729 194.288 336.243 182.725 333.412 171.457L301.468 208.474C300.004 219.949 298.133 230.898 295.855 241.321L337.702 205.25Z" fill="#4CAF50"/>
<path d="M248.704 151.429C244.059 158.28 240.12 165.582 236.945 173.225L296.534 233.841C298.327 224.761 299.689 215.978 300.722 207.8L248.445 152.077L248.704 151.429Z" fill="#4CAF50"/>
<path d="M233.492 182.21L233.74 181.554L294.829 241.965C295.323 239.749 295.791 237.547 296.232 235.357L236.423 174.517L236.675 173.863C235.554 176.555 234.493 179.338 233.492 182.21Z" fill="#4CAF50"/>
<path d="M336.37 229.634L336.477 230.311C337.465 222.469 337.923 214.57 337.848 206.667L295.436 243.226C293.878 250.167 292.142 256.845 290.229 263.261L336.37 229.634Z" fill="#4CAF50"/>
<path d="M276.124 299.475C269.353 312.972 261.467 324.506 252.541 333.941C262.735 329.142 303.715 308.226 323.594 273.583L276.124 299.475Z" fill="#4CAF50"/>
<path d="M226.602 215.123C226.199 222.705 226.305 230.306 226.919 237.873L227.231 237.174L275.895 297.758C279.614 290.169 282.873 282.364 285.655 274.385L226.602 215.123Z" fill="#4CAF50"/>
<path d="M303.866 170.4C304.977 145.42 303.854 128.121 303.837 127.873L304.256 127.674C293.776 122.377 282.578 123.22 271.956 129.063L303.866 170.4Z" fill="#4CAF50"/>
<path d="M286.739 274.106C286.477 274.864 286.217 275.625 285.949 276.373C283.393 283.553 280.448 290.589 277.127 297.449L324.147 271.804L324.21 272.486C327.659 266.358 330.317 259.818 332.12 253.022C332.817 250.349 333.447 247.67 334.011 244.985L286.739 274.106Z" fill="#4CAF50"/>
<path d="M300.924 206.167C302.406 194.055 303.283 182.546 303.779 172.261L271.138 129.976L271.422 129.357C263.448 133.878 255.815 141.222 249.073 150.899L300.924 206.167Z" fill="#4CAF50"/>
<path d="M275.299 298.96L226.991 238.82C230.662 284.2 248.96 331.811 250.138 334.838C260.332 324.616 268.597 312.292 275.299 298.96Z" fill="#4CAF50"/>
<path d="M286.098 273.013L286.143 272.985C289.455 263.295 292.244 253.434 294.495 243.444L233.256 182.885C231.917 186.782 230.698 190.832 229.599 195.035C228.077 201.06 227.109 207.211 226.707 213.412L286.098 273.013Z" fill="#4CAF50"/>
<path d="M135.028 180.683L146.188 210.108C154.716 216.103 164.085 223.091 173.636 230.92L159.704 185.025L160.307 185.181C151.279 182.331 142.529 180.749 134.439 180.568L135.028 180.683Z" fill="#4CAF50"/>
<path d="M144.69 209.059L133.88 180.556C124.817 180.425 116.602 182.073 109.786 185.712C109.431 185.901 109.086 186.098 108.743 186.296C111.222 187.67 125.722 195.828 144.69 209.059Z" fill="#4CAF50"/>
<path d="M222.163 223.332L222.794 223.635C219.608 220.562 216.337 217.631 212.981 214.841L216.743 272.255L216.45 272.128C218.182 274.138 219.861 276.147 221.488 278.156L222.163 223.332Z" fill="#4CAF50"/>
<path d="M191.801 199.855L192.427 200.091C182.548 193.964 171.976 189.028 160.934 185.385L175.131 232.155C184.049 239.534 192.304 246.974 199.897 254.475L191.801 199.855Z" fill="#4CAF50"/>
<path d="M98.6537 246.141C101.96 253.727 106.025 260.961 110.787 267.731L193.937 249.899C187.22 243.525 180.523 237.673 174.161 232.424L99.0639 246.706L98.6537 246.141Z" fill="#4CAF50"/>
<path d="M116.536 275.455L116.114 274.894L199.892 255.686C198.283 254.083 196.672 252.51 195.057 250.965L111.6 268.863L111.182 268.3C112.859 270.687 114.643 273.072 116.536 275.455Z" fill="#4CAF50"/>
<path d="M211.705 214.033L212.335 214.305C206.234 209.273 199.8 204.658 193.078 200.491L201.283 255.849C206.318 260.88 211.035 265.919 215.435 270.968L211.705 214.033Z" fill="#4CAF50"/>
<path d="M238.503 302.256C246.29 315.195 251.82 328.024 255.018 340.606C256.418 329.436 260.672 283.66 242.024 248.34L238.503 302.256Z" fill="#4CAF50"/>
<path d="M140.675 298.888C146.869 303.287 153.352 307.266 160.079 310.799L159.655 310.162L236.929 301.53C232.503 294.33 227.649 287.402 222.393 280.783L140.675 298.888Z" fill="#4CAF50"/>
<path d="M144.224 209.75C123.698 195.44 108.471 187.128 108.252 187.009L108.309 186.549C98.2195 192.556 92.9374 202.457 92.1921 214.547L144.224 209.75Z" fill="#4CAF50"/>
<path d="M222.737 279.719C223.237 280.345 223.741 280.972 224.231 281.599C228.933 287.599 233.305 293.851 237.327 300.326L240.815 246.921L241.426 247.233C238.091 241.043 233.985 235.299 229.204 230.139C227.317 228.12 225.389 226.154 223.421 224.241L222.737 279.719Z" fill="#4CAF50"/>
<path d="M172.889 231.38C163.442 223.645 154.181 216.744 145.751 210.82L92.5255 215.726L92.154 215.155C91.708 224.304 93.8309 234.676 98.4037 245.545L172.889 231.38Z" fill="#4CAF50"/>
<path d="M237.626 302.677L160.918 311.245C201.251 332.44 251.301 342.488 254.491 343.115C251.305 329.041 245.31 315.469 237.626 302.677Z" fill="#4CAF50"/>
<path d="M221.469 279.675L221.47 279.622C215.05 271.639 208.205 264.007 200.964 256.76L116.98 276.015C119.558 279.231 122.33 282.428 125.295 285.606C129.574 290.115 134.257 294.224 139.284 297.883L221.469 279.675Z" fill="#4CAF50"/>
<path d="M590 360.494C590 385.93 459.021 431 297.45 431C135.879 431 4.89937 385.93 4.89937 360.494C4.89937 335.057 135.879 338.887 297.45 338.887C459.021 338.887 590 335.057 590 360.494Z" fill="#3F3D56"/>
<path opacity="0.1" d="M590 360.494C590 385.93 459.021 431 297.45 431C135.879 431 4.89937 385.93 4.89937 360.494C4.89937 335.057 135.879 338.887 297.45 338.887C459.021 338.887 590 335.057 590 360.494Z" fill="black"/>
<path d="M297.45 406.55C459.021 406.55 590 385.93 590 360.494C590 335.057 459.021 314.437 297.45 314.437C135.879 314.437 4.89936 335.057 4.89936 360.494C4.89936 385.93 135.879 406.55 297.45 406.55Z" fill="#3F3D56"/>
<path opacity="0.1" d="M348.17 312.354C348.17 340.067 309.504 331.495 262.162 331.495C214.819 331.495 176.728 340.067 176.728 312.354C176.728 284.642 215.388 278.615 262.731 278.615C310.073 278.615 348.17 284.642 348.17 312.354Z" fill="black"/>
<path d="M348.17 305.531C348.17 333.243 309.504 324.672 262.162 324.672C214.819 324.672 176.728 333.243 176.728 305.531C176.728 277.819 215.388 271.792 262.731 271.792C310.073 271.792 348.17 277.819 348.17 305.531Z" fill="#3F3D56"/>
<path d="M195.871 229.279C196.912 228.538 198.062 227.962 199.278 227.571C206.993 224.704 215.077 222.946 223.287 222.35C230.426 221.845 238.163 222.445 243.739 226.927C244.606 227.563 245.316 228.389 245.813 229.342C246.515 230.854 246.302 232.612 246.075 234.263C246.024 234.904 245.863 235.531 245.597 236.116C244.847 237.543 243 238.043 241.395 237.872C239.791 237.701 238.285 237.023 236.702 236.708C235.723 236.538 234.732 236.437 233.739 236.407L223.812 235.87C217.64 235.536 211.386 235.208 205.332 236.452C203.468 236.787 201.667 237.407 199.992 238.29C198.609 239.066 197.678 240.179 196.395 238.746C194.141 236.229 192.893 231.603 195.871 229.279Z" fill="#2F2E41"/>
<path d="M211.252 233.664C211.252 233.664 224.603 227.685 229.667 234.583C234.732 241.482 226.905 238.723 226.905 238.723L218.158 241.482L208.49 239.643L211.252 233.664Z" fill="#F2F2F2"/>
<path d="M211.943 229.294C211.943 229.294 213.784 238.033 212.403 240.332C211.022 242.632 220.23 245.852 220.23 245.852L228.977 242.172C228.977 242.172 226.675 227.915 228.977 225.155L211.943 229.294Z" fill="#FFB9B9"/>
<path opacity="0.1" d="M211.943 229.294C211.943 229.294 213.784 238.033 212.403 240.332C211.022 242.632 220.23 245.852 220.23 245.852L228.977 242.172C228.977 242.172 226.675 227.915 228.977 225.155L211.943 229.294Z" fill="black"/>
<path d="M203.316 334.369C204.554 336.933 205.572 339.597 206.359 342.334C206.371 342.424 206.403 342.51 206.452 342.588C206.501 342.665 206.565 342.731 206.641 342.781C206.717 342.832 206.803 342.866 206.894 342.881C206.984 342.896 207.076 342.892 207.164 342.869L215.353 342.86C216.364 342.859 217.72 342.534 217.709 341.525C217.702 340.816 216.976 340.373 216.436 339.913C214.937 338.635 214.546 336.528 213.926 334.66C212.719 331.061 210.393 327.94 207.288 325.753C206.868 325.425 206.385 325.187 205.869 325.053C205.35 324.978 204.821 325.006 204.313 325.137C202.876 325.427 197.508 326.418 198.522 328.507C198.958 329.406 200.576 330.343 201.255 331.183C202.045 332.174 202.736 333.241 203.316 334.369Z" fill="#575A89"/>
<path d="M231.792 324.881C231.503 325.487 231.182 326.077 230.829 326.649C229.643 328.603 228.243 330.427 227.138 332.429C226.393 333.651 225.934 335.026 225.793 336.451C225.73 337.163 225.839 337.88 226.111 338.541C226.383 339.203 226.81 339.789 227.356 340.252C228.544 341.153 230.174 341.195 231.652 340.985C233.129 340.775 234.598 340.352 236.086 340.463C235.584 337.627 237.979 335.131 238.577 332.313C238.746 331.522 238.771 330.701 238.996 329.924C239.239 329.214 239.549 328.528 239.923 327.877C241.115 325.557 241.958 323.074 242.424 320.509C242.48 320.197 235.145 320.146 234.456 320.295C232.309 320.759 232.623 323.102 231.792 324.881Z" fill="#575A89"/>
<path d="M175.253 280.322C173.159 283.596 173.641 287.934 175.112 291.531C176.583 295.128 178.924 298.307 180.526 301.847C181.547 304.104 182.264 306.497 183.414 308.691C184.838 311.409 186.918 313.804 187.873 316.718C188.483 318.576 188.622 320.613 189.609 322.301C190.206 323.203 190.887 324.047 191.643 324.821C193.768 327.254 195.364 330.102 196.329 333.184C197.231 330.5 199.932 328.74 202.706 328.159C205.48 327.578 208.355 327.973 211.161 328.369C209.596 325.946 208.015 323.492 207.082 320.764C206.179 318.124 205.913 315.316 205.305 312.594C204.058 307.012 201.395 301.863 198.758 296.787L212.31 295.713C214.522 295.491 216.746 295.408 218.968 295.466C222.466 295.631 225.893 296.487 229.373 296.883C232.852 297.279 236.533 297.176 239.633 295.55C233.704 304.048 230.616 314.202 230.811 324.559C232.136 323.534 233.674 322.817 235.313 322.462C236.951 322.106 238.648 322.122 240.279 322.506C241.911 322.891 243.436 323.635 244.742 324.685C246.049 325.734 247.104 327.062 247.83 328.572C253.141 321.321 252.51 311.228 256.718 303.288C257.583 301.655 258.644 300.134 259.578 298.54C261.342 295.338 262.853 292.002 264.096 288.564C265.274 285.556 266.459 282.209 265.33 279.183C264.862 278.035 264.179 276.986 263.319 276.092C260.89 273.418 257.511 271.44 253.898 271.357C248.351 271.231 243.769 275.338 238.903 278.002C233.095 281.086 226.525 282.447 219.968 281.925C213.284 281.452 206.901 279.266 200.534 277.342C197.349 276.334 194.111 275.5 190.835 274.842C188.105 274.331 185.504 274.897 182.813 275.595C179.884 276.354 176.939 277.686 175.253 280.322Z" fill="#4CAF50"/>
<path d="M233.12 220.556C233.117 224.214 231.661 227.722 229.072 230.309C226.482 232.896 222.971 234.351 219.309 234.354C218.486 234.355 217.665 234.281 216.855 234.133C214.27 233.666 211.872 232.473 209.942 230.694C208.012 228.914 206.63 226.621 205.958 224.085C205.286 221.548 205.353 218.873 206.149 216.372C206.945 213.872 208.439 211.65 210.454 209.968C212.47 208.285 214.924 207.212 217.528 206.874C220.133 206.535 222.78 206.946 225.16 208.057C227.539 209.169 229.551 210.935 230.961 213.149C232.372 215.362 233.12 217.932 233.12 220.556Z" fill="#FFB9B9"/>
<path d="M211.252 233.664C211.252 233.664 213.784 234.813 214.705 235.733C215.626 236.653 218.388 241.712 222.992 238.493C227.596 235.273 228.056 233.434 229.437 233.434C230.818 233.434 232.66 236.193 232.66 236.193L245.32 274.137C241.908 277.984 237.953 281.315 233.581 284.025C226.215 288.624 217.467 290.924 213.324 289.084C209.181 287.244 201.354 285.865 199.973 282.185C198.592 278.506 196.29 267.468 196.29 267.468L202.735 239.413L211.252 233.664Z" fill="#F2F2F2"/>
<path d="M209.475 272.039C210.479 269.873 210.624 267.421 210.709 265.036C210.845 262.674 210.782 260.304 210.522 257.952C210.114 254.876 209.111 251.912 208.478 248.874C207.923 246.209 207.653 243.493 207.673 240.771C207.682 239.529 207.772 238.222 208.449 237.18C208.922 236.454 209.661 235.891 209.957 235.076C210.536 233.479 209.105 231.807 207.537 231.149C205.627 230.433 203.538 230.35 201.577 230.91C199.632 231.471 197.753 232.239 195.972 233.201C194.625 233.775 193.386 234.575 192.309 235.566C190.88 237.043 190.251 239.101 189.744 241.092C189.338 242.685 188.977 244.347 189.286 245.962C189.788 248.585 191.928 250.558 193.069 252.972C194.394 255.776 194.304 259.044 193.777 262.1C193.251 265.155 192.315 268.143 192.027 271.23C191.738 274.317 192.181 277.636 194.117 280.059C194.906 281.047 197.046 283.387 198.491 283.123C199.625 282.915 201.271 280.419 202.185 279.628C204.825 277.343 207.958 275.311 209.475 272.039Z" fill="#2F2E41"/>
<path d="M233.595 232.164C233.636 234.729 232.504 237.167 231.173 239.361C229.842 241.555 228.278 243.63 227.297 246.001C226.078 248.969 225.829 252.245 226.586 255.363C226.867 256.425 227.206 257.471 227.602 258.496L230.124 265.408C230.464 266.495 230.956 267.528 231.587 268.476C232.157 269.202 232.826 269.845 233.575 270.386C235.491 271.932 237.696 273.081 240.061 273.767C242.442 274.447 244.984 274.302 247.273 273.355C247.516 263.985 249.023 254.691 251.753 245.723C252.257 244.067 252.808 242.324 252.419 240.638C251.984 238.749 250.465 237.331 249.021 236.036C244.607 232.076 239.752 227.915 233.842 227.381C230.422 227.072 233.566 230.309 233.595 232.164Z" fill="#2F2E41"/>
<path d="M203.383 285.636C203.733 286.321 203.951 287.067 204.298 287.753C204.809 288.674 205.44 289.523 206.176 290.277C209.254 293.687 213.017 297.083 217.609 297.289C218.065 297.332 218.525 297.274 218.956 297.12C219.344 296.921 219.678 296.631 219.928 296.274C220.178 295.917 220.337 295.504 220.39 295.071C220.716 293.29 219.929 291.513 219.141 289.883C217.433 286.349 215.511 282.725 212.314 280.446C210.717 279.353 208.893 278.636 206.979 278.348C205.065 278.06 203.11 278.21 201.262 278.785C199.596 279.298 196.835 280.193 199.04 281.711C200.713 282.863 202.413 283.739 203.383 285.636Z" fill="#FFB9B9"/>
<path d="M223.232 240.646C222.753 239.353 222.018 238.169 221.071 237.166C220.117 236.36 218.986 235.788 217.771 235.496C216.196 235.046 214.567 234.813 212.93 234.802C210.98 234.79 208.719 235.313 207.891 237.076C207.234 238.477 207.743 240.135 208.405 241.533C208.688 242.257 209.159 242.893 209.77 243.375C210.611 243.943 211.698 243.925 212.695 244.115C214.241 244.507 215.704 245.169 217.018 246.072L220.433 248.134L226.299 251.676C226.144 251.583 226.199 247.564 226.019 246.906C225.439 244.784 224.132 242.655 223.232 240.646Z" fill="#FFB9B9"/>
<path d="M206.145 341.292C204.773 343.155 205.048 345.819 203.832 347.788C202.778 349.495 200.792 350.39 199.474 351.902C199.053 352.404 198.678 352.943 198.353 353.512C197.131 355.558 196.137 358.181 197.341 360.238C198.31 361.893 200.346 362.539 202.214 362.98C204.574 363.537 207.027 363.983 209.414 363.558C211.802 363.132 214.136 361.671 214.987 359.402C215.154 358.832 215.353 358.271 215.583 357.723C216.877 355.177 220.936 355.15 222.261 352.62C223.188 350.85 222.336 348.71 221.484 346.902L218.883 341.381C218.02 339.549 214.52 340.603 212.696 340.164C210.316 339.591 207.857 338.96 206.145 341.292Z" fill="#2F2E41"/>
<path d="M226.265 336.549C225.2 337.387 224.386 338.502 223.912 339.77C222.624 342.738 222.182 345.99 221.753 349.196C221.508 350.471 221.483 351.778 221.679 353.062C222.233 355.679 224.608 357.607 227.164 358.407C229.719 359.208 232.46 359.084 235.136 358.953C235.999 358.975 236.855 358.802 237.642 358.445C238.986 357.704 239.511 355.963 239.281 354.447C239.05 352.931 238.221 351.581 237.409 350.28C236.598 348.978 235.768 347.629 235.535 346.113C235.144 343.563 236.248 339.82 234.679 337.512C233.108 335.2 228.363 335.081 226.265 336.549Z" fill="#2F2E41"/>
<path d="M232.773 213.365C232.527 212.54 231.986 211.834 231.252 211.383C231.29 210.499 231.182 209.615 230.931 208.766C230.095 206.296 228.114 206.437 226.244 205.345C225.433 204.871 225.483 204.453 225.061 203.674C224.507 202.654 223.679 201.809 222.669 201.236C221.469 200.473 220.203 199.687 218.784 199.59C215.803 199.387 213.516 202.189 210.666 203.088C209.41 203.484 208.06 203.501 206.798 203.875C205.535 204.25 204.275 205.145 204.087 206.447C204 207.049 204.153 207.666 204.065 208.267C203.89 209.462 202.84 210.298 202.138 211.281C200.585 213.455 200.762 216.525 202.005 218.889C202.266 219.379 202.566 219.847 202.9 220.29C203.004 221.407 203.325 222.494 203.846 223.489C205.088 225.853 207.226 227.62 209.459 229.088C209.276 228.304 209.165 227.505 209.128 226.7C209.096 226.432 209.131 226.161 209.229 225.909C209.478 225.39 210.135 225.252 210.636 224.967C211.674 224.378 212.081 223.075 212.111 221.883C212.141 220.691 211.888 219.497 212.013 218.311C212.018 218.038 212.08 217.769 212.195 217.522C212.31 217.275 212.476 217.055 212.682 216.875C213.065 216.657 213.502 216.553 213.942 216.575C216.069 216.488 218.29 216.449 220.165 215.445C220.77 215.043 221.42 214.715 222.102 214.466C223.696 214.051 225.325 215.167 226.244 216.533C227.162 217.898 227.62 219.524 228.468 220.935C229.315 222.346 230.779 223.604 232.418 223.437C232.51 223.437 232.601 223.418 232.686 223.38C232.77 223.343 232.845 223.288 232.907 223.219C232.978 223.092 233.009 222.948 232.997 222.803L233.089 216.546C233.165 215.475 233.058 214.4 232.773 213.365Z" fill="#2F2E41"/>
<path d="M189.064 246.096C187.747 248.038 186.227 249.905 185.503 252.137C185.077 253.449 184.945 254.836 184.637 256.18C183.61 260.657 180.644 264.634 180.346 269.218C180.242 270.236 180.391 271.265 180.782 272.211C181.633 274.06 183.669 275.035 185.611 275.647C187.553 276.26 189.639 276.702 191.19 278.022C191.97 278.769 192.678 279.589 193.303 280.47C195.833 283.613 199.236 285.939 203.084 287.155C202.78 285.063 202.637 282.54 204.312 281.247C205.218 280.546 206.43 280.422 207.571 280.323L212.965 279.857C209.368 276.372 205.404 273.286 201.141 270.655C199.649 269.735 198.026 268.764 197.345 267.15C196.993 266.11 196.847 265.011 196.915 263.916C196.877 259.908 196.538 255.909 195.898 251.952C195.454 249.205 194.866 246.482 194.194 243.781C194.005 243.023 192.889 239.622 191.516 240.418C191.192 240.605 190.89 242.763 190.701 243.21C190.251 244.223 189.703 245.19 189.064 246.096Z" fill="#2F2E41"/>
<path d="M251.192 238.756L253.395 243.333C254.456 245.215 254.939 247.367 254.784 249.522L254.915 263.251C255.016 265.085 254.864 266.925 254.463 268.717C254.325 269.308 254.067 269.864 253.703 270.35C253.329 270.768 252.889 271.123 252.4 271.398C248.231 274.001 242.825 275.48 238.421 273.299C237.412 272.762 236.453 272.136 235.554 271.43C233.799 270.131 232.018 268.807 230.704 267.063C229.33 265.238 228.542 263.053 227.617 260.964C225.958 257.217 223.814 253.704 221.24 250.514C220.813 250.092 220.536 249.543 220.45 248.95C220.422 247.746 221.852 247.154 222.966 246.696C224.87 245.914 226.665 244.405 226.983 242.373C231.032 247.676 235.499 253.28 241.887 255.218C241.987 255.282 242.103 255.317 242.222 255.321C242.34 255.325 242.458 255.296 242.562 255.238C242.666 255.181 242.752 255.096 242.812 254.993C242.871 254.891 242.902 254.774 242.901 254.655C243.263 253.139 243.392 251.579 243.657 250.043C244.143 247.246 245.08 244.547 246.431 242.05C247.187 240.65 249.637 235.526 251.192 238.756Z" fill="#2F2E41"/>
<path opacity="0.1" d="M196.529 251.992C196.59 255.24 195.899 258.459 194.51 261.398C194.149 262.047 193.883 262.745 193.72 263.47C193.478 265.016 194.359 266.513 195.366 267.712C197.352 270.07 199.928 271.86 202.831 272.901" fill="black"/>
<path opacity="0.1" d="M244.363 249.253C244.038 250.125 244.333 251.09 244.583 251.986C245.308 254.585 245.647 257.276 245.588 259.974C245.598 260.021 245.597 260.07 245.584 260.117C245.57 260.163 245.546 260.206 245.512 260.24C245.478 260.275 245.436 260.3 245.39 260.315C245.344 260.329 245.295 260.332 245.247 260.322C244.185 260.387 242.968 260.394 242.247 259.612" fill="black"/>
<path opacity="0.1" d="M424.942 379.257C464.549 379.257 496.657 372.384 496.657 363.905C496.657 355.426 464.549 348.553 424.942 348.553C385.335 348.553 353.228 355.426 353.228 363.905C353.228 372.384 385.335 379.257 424.942 379.257Z" fill="black"/>
<path d="M460.8 226.872L455.677 231.99L460.8 237.107L465.922 226.872H460.8Z" fill="#A0616A"/>
<path d="M461.953 182.498C463.391 183.086 464.074 184.693 464.616 186.147L471.261 203.985L472.554 207.457C473.189 209.16 473.823 210.864 474.36 212.6C474.699 213.698 474.999 214.807 475.258 215.928C475.528 216.886 475.631 217.884 475.565 218.878C475.385 219.971 474.986 221.017 474.39 221.952C472.078 225.974 468.786 229.348 464.82 231.758C464.591 230.283 463.995 228.889 463.088 227.704C462.181 226.518 460.99 225.579 459.625 224.972L463.061 223.084C463.788 222.743 464.442 222.264 464.987 221.675C465.319 221.215 465.556 220.693 465.682 220.14C465.809 219.586 465.822 219.013 465.722 218.455C465.516 217.34 465.173 216.255 464.702 215.224C463.549 212.35 462.549 209.417 461.705 206.437C461.206 204.675 460.748 202.863 459.758 201.321C458.861 199.922 457.562 198.803 456.747 197.355C455.504 195.147 455.536 192.43 456.085 189.957C456.548 187.87 457.325 185.861 457.978 183.829C458.492 182.232 460.414 181.869 461.953 182.498Z" fill="#D0CDE1"/>
<path d="M430.272 134.84C427.63 135.732 425.236 137.817 424.695 140.55C424.444 141.817 424.598 143.134 424.387 144.408C423.897 147.363 421.576 149.62 419.434 151.716C417.292 153.812 415.081 156.248 414.925 159.239C414.754 162.514 417.131 165.583 416.72 168.837C416.242 172.617 412.245 175.067 411.257 178.747C410.597 181.205 411.406 183.852 412.736 186.022C415.27 190.157 419.603 192.964 424.217 194.469C428.83 195.974 433.744 196.29 438.597 196.341C444.507 196.403 450.922 195.896 455.362 192C457.899 189.754 459.491 186.634 459.821 183.265C460.243 178.752 458.357 174.088 459.658 169.746C460.477 167.013 462.529 164.517 462.223 161.68C461.923 158.907 459.499 156.942 457.836 154.701C456.283 152.61 455.341 150.139 454.417 147.704L451.257 139.372C450.636 137.733 449.954 136.011 448.569 134.936C445.978 132.923 441.811 133.318 438.78 133.733C435.969 134.119 432.976 133.928 430.272 134.84Z" fill="#2F2E41"/>
<path d="M432.716 162.301C432.716 162.301 433.026 171.571 432.098 172.498C431.17 173.425 435.809 179.604 435.809 179.604L444.16 179.295L448.49 175.897L444.779 170.953C444.779 170.953 443.232 162.919 444.47 161.065C445.707 159.211 432.716 162.301 432.716 162.301Z" fill="#A0616A"/>
<path opacity="0.1" d="M432.716 162.301C432.716 162.301 433.026 171.571 432.098 172.498C431.17 173.425 435.809 179.604 435.809 179.604L444.16 179.295L448.49 175.897L444.779 170.953C444.779 170.953 443.232 162.919 444.47 161.065C445.707 159.211 432.716 162.301 432.716 162.301Z" fill="black"/>
<path d="M413.385 233.831L418.643 245.573L422.665 240.629L414.623 230.123L413.385 233.831Z" fill="#A0616A"/>
<path d="M399.313 351.4L397.148 363.451L393.436 368.704L395.601 369.94L399.313 369.321L403.643 367.777L405.499 360.67L408.901 351.4H399.313Z" fill="#A0616A"/>
<path d="M438.902 343.985L437.665 361.288L440.758 363.76L445.707 359.434V346.766L438.902 343.985Z" fill="#A0616A"/>
<path d="M437.82 165.854C443.969 165.854 448.954 160.874 448.954 154.731C448.954 148.588 443.969 143.608 437.82 143.608C431.67 143.608 426.685 148.588 426.685 154.731C426.685 160.874 431.67 165.854 437.82 165.854Z" fill="#A0616A"/>
<path d="M446.412 169.692C446.078 169.532 445.714 169.445 445.344 169.438C444.973 169.431 444.606 169.503 444.266 169.651C443.591 169.95 442.935 170.291 442.303 170.673C440.678 171.518 438.836 171.853 437.017 171.634C436.803 171.617 436.594 171.564 436.399 171.475C436.192 171.346 436.002 171.193 435.833 171.018C435.174 170.483 434.332 170.225 433.486 170.298C432.639 170.371 431.854 170.769 431.296 171.409C430.969 171.816 430.745 172.302 430.388 172.683C429.464 173.671 427.939 173.711 426.586 173.708C423.78 173.63 420.975 173.887 418.231 174.473C415.474 175.068 412.935 176.412 410.894 178.357C410.337 178.88 409.894 179.512 409.591 180.213C409.218 181.175 409.267 182.255 408.931 183.23C408.558 184.316 407.73 185.207 407.395 186.306C407.143 187.133 407.178 188.054 406.756 188.809C408.564 190.372 410.095 192.456 411.902 194.019C413.099 195.054 414.352 196.174 414.802 197.69C415.004 198.624 415.094 199.58 415.07 200.536C415.293 205.106 417.775 209.252 420.549 212.893C421.31 213.973 422.22 214.939 423.253 215.763C424.656 216.717 426.248 217.356 427.922 217.636C431.081 218.282 434.334 218.278 437.559 218.246C440.892 218.213 444.283 218.143 447.451 217.108C449.064 216.658 450.514 215.758 451.633 214.514C452.936 212.915 453.444 210.602 455.222 209.555C455.653 209.358 456.06 209.114 456.438 208.829C456.8 208.437 457.057 207.959 457.183 207.44C457.805 205.499 458.148 203.48 458.201 201.443C458.155 200.221 458.238 198.997 458.449 197.792C458.756 196.73 459.204 195.714 459.781 194.77L463.465 188.095C463.764 187.553 463.687 186.754 463.714 186.136C463.687 185.243 463.412 184.376 462.921 183.629C460.532 179.41 456.778 176.127 452.275 174.32C451.921 174.199 451.583 174.034 451.27 173.827C450.901 173.518 450.59 173.147 450.349 172.73C449.372 171.258 448.177 169.6 446.412 169.692Z" fill="#D0CDE1"/>
<path d="M400.494 206.046C399.768 207.811 399.234 209.649 398.903 211.528C398.547 214.124 398.966 216.768 400.108 219.127C402.093 223.21 406.002 225.979 408.761 229.586C411.324 232.937 412.851 236.953 415.07 240.541C414.683 239.628 415.153 238.57 415.787 237.807C416.42 237.043 417.23 236.41 417.694 235.533C418.011 234.855 418.209 234.127 418.282 233.382C418.614 231.158 418.793 228.741 417.657 226.799C416.803 225.337 415.327 224.366 414.158 223.14C412.989 221.893 412.13 220.388 411.65 218.749C411.17 217.109 411.082 215.379 411.394 213.699C411.619 212.543 412.033 211.433 412.343 210.296C412.726 208.768 413.016 207.219 413.212 205.656L414.605 196.099C414.975 193.558 415.289 190.745 413.848 188.617C413.567 188.172 413.178 187.804 412.717 187.549C412.336 187.375 411.93 187.26 411.514 187.21C409.998 186.963 407.945 186.3 407.205 187.922C406.312 189.881 405.69 192.015 404.942 194.035L400.494 206.046Z" fill="#D0CDE1"/>
<path d="M453.577 211.275C453.577 211.275 435.191 214.829 430.861 214.829H423.128C423.128 214.829 420.345 219.773 420.345 224.716C420.345 229.66 402.097 298.873 402.097 298.873C402.097 298.873 384.776 355.726 403.952 356.035C423.128 356.344 435.191 357.271 435.5 350.783C435.809 344.294 437.665 260.559 437.665 260.559L440.552 303.615C441.328 314.274 440.499 324.989 438.094 335.403C436.709 341.241 436.924 347.641 443.851 348.929C457.151 351.4 473.852 349.238 473.852 344.603C473.852 339.968 465.192 237.076 465.192 237.076C465.192 237.076 460.862 221.935 458.388 220.699C455.913 219.464 453.577 211.275 453.577 211.275Z" fill="#4CAF50"/>
<path d="M395.911 368.086L402.715 365.614L407.354 353.872L412.303 353.254C412.303 353.254 409.52 359.125 407.973 360.052C406.427 360.979 403.952 368.704 403.952 368.704C403.952 368.704 405.189 371.794 399.313 373.03C393.436 374.265 389.106 375.192 389.106 375.192C389.106 375.192 388.488 373.956 391.271 370.867C394.055 367.777 397.305 362.575 397.305 362.575L395.911 368.086Z" fill="#2F2E41"/>
<path d="M437.665 353.872L436.428 363.142C436.428 363.142 439.83 368.086 440.758 368.086C441.686 368.086 446.635 363.76 446.635 363.76C446.635 363.76 446.325 359.125 446.635 357.889C446.944 356.653 447.562 350.783 446.635 350.474C445.707 350.165 445.707 357.36 445.707 357.36L441.686 361.597L437.809 359.275L437.665 353.872Z" fill="#2F2E41"/>
<path d="M438.748 154.731C445.409 154.731 450.81 151.826 450.81 148.242C450.81 144.659 445.409 141.754 438.748 141.754C432.086 141.754 426.685 144.659 426.685 148.242C426.685 151.826 432.086 154.731 438.748 154.731Z" fill="#2F2E41"/>
<path d="M0 275.578C0 311.978 22.8578 341.432 51.1057 341.432L0 275.578Z" fill="#3F3D56"/>
<path d="M51.1057 341.432C51.1057 304.623 76.6137 274.838 108.137 274.838L51.1057 341.432Z" fill="#4CAF50"/>
<path d="M18.5166 278.878C18.5166 313.453 33.0926 341.432 51.1057 341.432L18.5166 278.878Z" fill="#4CAF50"/>
<path d="M51.1057 341.432C51.1057 294.399 80.589 256.34 117.025 256.34L51.1057 341.432Z" fill="#3F3D56"/>
<path d="M40.3544 341.896C40.3544 341.896 47.602 341.673 49.7863 340.119C51.9705 338.565 60.935 336.71 61.4768 339.202C62.0187 341.694 72.3687 351.596 64.1861 351.662C56.0036 351.728 45.1735 350.389 42.9935 349.062C40.8134 347.736 40.3544 341.896 40.3544 341.896Z" fill="#A8A8A8"/>
<path opacity="0.2" d="M64.3321 350.795C56.1496 350.861 45.3196 349.521 43.1395 348.195C41.4793 347.184 40.8177 343.559 40.5963 341.887C40.443 341.893 40.3544 341.896 40.3544 341.896C40.3544 341.896 40.8134 347.736 42.9935 349.062C45.1735 350.389 56.0036 351.728 64.1861 351.662C66.5481 351.643 67.364 350.804 67.3192 349.56C66.991 350.311 66.0902 350.78 64.3321 350.795Z" fill="black"/>
</g>
<defs>
<clipPath id="clip0_12_4">
<rect width="590" height="431" fill="white"/>
</clipPath>
</defs>
</svg>
