<svg width="401" height="481" viewBox="0 0 401 481" fill="none" xmlns="http://www.w3.org/2000/svg">
<g clip-path="url(#clip0_12_234)">
<path d="M388.039 177.284H12.6172C9.27208 177.28 6.06509 175.911 3.69974 173.479C1.3344 171.046 0.00386251 167.748 0 164.308V12.9754C0.00386251 9.53532 1.3344 6.23727 3.69974 3.80477C6.06509 1.37226 9.27208 0.00394167 12.6172 -3.05176e-05H388.039C391.384 0.00394167 394.591 1.37226 396.957 3.80477C399.322 6.23727 400.653 9.53532 400.656 12.9754V164.308C400.653 167.748 399.322 171.046 396.957 173.479C394.591 175.911 391.384 177.28 388.039 177.284Z" fill="#989898"/>
<path d="M300.482 169.008H72.2096C55.199 168.989 38.8907 162.031 26.8624 149.661C14.8341 137.291 8.06814 120.519 8.04895 103.026V74.2652C8.06812 56.7716 14.834 40.0001 26.8623 27.6301C38.8906 15.2602 55.199 8.30207 72.2096 8.28223H328.449C345.46 8.30207 361.768 15.2602 373.796 27.6301C385.824 40.0001 392.59 56.7716 392.61 74.2652C392.582 99.3839 382.867 123.466 365.596 141.227C348.324 158.989 324.908 168.98 300.482 169.008Z" fill="white"/>
<path d="M241.597 51.6039H90.7062C89.8432 51.6039 89.0156 51.2513 88.4053 50.6237C87.7951 49.9962 87.4523 49.145 87.4523 48.2575C87.4523 47.37 87.7951 46.5188 88.4053 45.8913C89.0156 45.2637 89.8432 44.9111 90.7062 44.9111H241.597C242.46 44.9111 243.288 45.2637 243.898 45.8913C244.508 46.5188 244.851 47.37 244.851 48.2575C244.851 49.145 244.508 49.9962 243.898 50.6237C243.288 51.2513 242.46 51.6039 241.597 51.6039Z" fill="#E6E6E6"/>
<path d="M317.981 87.3074H90.7062C89.8432 87.3074 89.0156 86.9548 88.4053 86.3273C87.7951 85.6997 87.4523 84.8485 87.4523 83.961C87.4523 83.0735 87.7951 82.2223 88.4053 81.5948C89.0156 80.9672 89.8432 80.6147 90.7062 80.6147H317.981C318.844 80.6147 319.672 80.9672 320.282 81.5948C320.892 82.2223 321.235 83.0735 321.235 83.961C321.235 84.8485 320.892 85.6997 320.282 86.3273C319.672 86.9548 318.844 87.3074 317.981 87.3074Z" fill="#E6E6E6"/>
<path d="M317.981 123.011H90.7062C89.8432 123.011 89.0156 122.658 88.4053 122.031C87.7951 121.403 87.4523 120.552 87.4523 119.665C87.4523 118.777 87.7951 117.926 88.4053 117.298C89.0156 116.671 89.8432 116.318 90.7062 116.318H317.981C318.844 116.318 319.672 116.671 320.282 117.298C320.892 117.926 321.235 118.777 321.235 119.665C321.235 120.552 320.892 121.403 320.282 122.031C319.672 122.658 318.844 123.011 317.981 123.011Z" fill="#E6E6E6"/>
<path d="M317.981 123.011H90.7062C89.8432 123.011 89.0156 122.658 88.4053 122.031C87.7951 121.403 87.4523 120.552 87.4523 119.665C87.4523 118.777 87.7951 117.926 88.4053 117.298C89.0156 116.671 89.8432 116.318 90.7062 116.318H317.981C318.844 116.318 319.672 116.671 320.282 117.298C320.892 117.926 321.235 118.777 321.235 119.665C321.235 120.552 320.892 121.403 320.282 122.031C319.672 122.658 318.844 123.011 317.981 123.011Z" fill="#E6E6E6"/>
<path d="M225.674 91.4052C225.711 92.4132 225.961 93.4008 226.409 94.2984C226.856 95.196 227.49 95.9818 228.264 96.6004C229.039 97.219 229.936 97.6554 230.893 97.8789C231.849 98.1024 232.841 98.1075 233.8 97.8938L246.209 118.83L251.491 107.304L238.897 89.19C238.441 87.5578 237.419 86.1541 236.024 85.2451C234.629 84.3361 232.959 83.9848 231.329 84.2579C229.699 84.5309 228.223 85.4093 227.181 86.7266C226.139 88.0439 225.603 89.7086 225.674 91.4052Z" fill="#FFB6B6"/>
<path d="M318.799 151.406L276.034 127.55L262.545 114.536C262.545 114.536 256.681 112.921 258.839 110.96C260.997 108.999 254.847 107.108 254.847 107.108L247.605 100.121L237.316 107.609L240.294 112.356C240.294 112.356 240.089 120.215 244.275 118.703C248.462 117.191 247.415 123.709 247.415 123.709L272.403 163.543L318.799 151.406Z" fill="#81C784"/>
<path d="M192.561 128.93C215.631 128.93 234.332 109.698 234.332 85.973C234.332 62.2483 215.631 43.0156 192.561 43.0156C169.491 43.0156 150.79 62.2483 150.79 85.973C150.79 109.698 169.491 128.93 192.561 128.93Z" fill="#4CAF50"/>
<path d="M318.931 464.298H310.246L306.113 429.847H318.931V464.298Z" fill="#FFB6B6"/>
<path d="M323.516 479.774H317.287L316.175 473.727L313.328 479.774H296.808C296.016 479.774 295.245 479.514 294.607 479.031C293.969 478.549 293.498 477.869 293.262 477.092C293.027 476.314 293.039 475.48 293.297 474.71C293.555 473.94 294.046 473.275 294.698 472.813L307.89 463.443V457.329L321.766 458.181L323.516 479.774Z" fill="#2F2E41"/>
<path d="M249.466 464.298H240.78L236.647 429.847H249.466V464.298Z" fill="#FFB6B6"/>
<path d="M254.05 479.774H247.822L246.71 473.727L243.862 479.774H227.343C226.551 479.774 225.78 479.514 225.142 479.031C224.504 478.549 224.033 477.869 223.797 477.092C223.562 476.314 223.574 475.48 223.832 474.71C224.09 473.94 224.581 473.275 225.232 472.813L238.425 463.443V457.329L252.301 458.181L254.05 479.774Z" fill="#2F2E41"/>
<path d="M309.716 203.742H265.878V255.067H309.716V203.742Z" fill="#FFB6B6"/>
<path d="M266.89 229.058L259.471 238.074L246.657 265.817L214.369 344.821L207.541 361.53L213.055 391.066C213.055 391.066 213.948 411.876 213.948 415.282C213.948 422.217 219.589 426.06 219.589 426.06L223.727 448.226L263.855 446.492C263.855 446.492 262.455 422.059 254.05 415.896C245.646 409.733 241.782 377.613 241.782 377.613L237.215 363.362L281.727 309.1L282.014 328.067L282.153 337.248C282.153 337.248 275.635 396.96 283.233 408.548C290.832 420.137 283.388 418.773 283.388 418.773L283.75 442.678L331.297 443.025L320.808 374.203C320.808 374.203 315.481 369.878 318.331 365.531C321.181 361.183 315.569 355.858 315.569 355.858L318.086 302.131C318.086 302.131 315.299 292.851 318.577 291.645C321.855 290.439 319.008 282.458 319.008 282.458L319.495 272.059L309.716 239.808L266.89 229.058Z" fill="#4CAF50"/>
<path d="M310.39 203.742L315.111 189.177L318.483 184.322L319.832 170.451C319.832 132.998 311.708 139.235 311.708 139.235L307.018 126.062L285.436 125.369L271.611 138.893L260.146 143.055L255.656 167.046L263.855 192.645L265.878 206.517C262.019 213.844 262.345 210.378 265.541 215.88L303.646 226.63C317.134 231.485 317.134 219.001 314.429 215.88C311.725 212.759 310.39 203.742 310.39 203.742Z" fill="#81C784"/>
<path d="M293.439 120.713C304.489 120.713 313.446 111.501 313.446 100.138C313.446 88.7747 304.489 79.563 293.439 79.563C282.39 79.563 273.432 88.7747 273.432 100.138C273.432 111.501 282.39 120.713 293.439 120.713Z" fill="#FFB6B6"/>
<path d="M320.149 127.602C320.337 127.929 320.452 128.296 320.483 128.674C320.515 129.053 320.463 129.435 320.331 129.79C320.2 130.145 319.992 130.465 319.723 130.727C319.455 130.988 319.132 131.183 318.78 131.299C316.096 132.214 314.443 134.884 312.514 137.021C310.592 139.15 307.497 140.919 305.042 139.469C302.594 138.026 302.425 134.343 300.375 132.346C298.379 130.404 295.06 130.64 292.713 132.117L292.643 132.161C292.238 132.433 291.764 132.577 291.281 132.574C290.797 132.572 290.325 132.424 289.922 132.149C289.519 131.873 289.204 131.483 289.015 131.025C288.826 130.567 288.771 130.062 288.858 129.573C289.681 125.075 290.503 120.578 291.324 116.082C289.165 121.429 286.031 126.303 282.091 130.439C281.006 131.727 279.63 132.722 278.085 133.338C276.682 133.796 275.32 132.304 273.958 132.575C277.343 129.53 288.728 110.013 286.691 96.9668C284.297 97.2443 281.902 97.5217 279.508 97.7991C279.249 96.6339 278.695 95.5596 277.903 94.685C278 95.8191 277.86 96.9613 277.492 98.0349C276.494 98.1529 275.489 98.2638 274.49 98.3817C273.101 98.5413 271.59 98.68 270.397 97.9309C268.407 96.6825 268.346 93.7279 268.913 91.3974C270.572 84.6212 275.603 78.9548 281.761 75.9863C287.918 73.0247 289.739 79.6206 296.227 77.5122C309.041 73.3508 318.861 80.4668 322.32 93.6724C325.227 104.749 323.116 116.505 320.149 127.602Z" fill="#2F2E41"/>
<path d="M188.764 143.791L163.157 121.552C162.282 120.79 161.737 119.702 161.64 118.527C161.544 117.352 161.905 116.186 162.644 115.284L167.356 109.545C168.097 108.645 169.155 108.084 170.298 107.985C171.44 107.885 172.575 108.257 173.451 109.016L199.058 131.255C199.933 132.017 200.479 133.105 200.575 134.28C200.671 135.455 200.311 136.621 199.572 137.523L194.859 143.262C194.118 144.162 193.06 144.723 191.918 144.822C190.775 144.922 189.641 144.55 188.764 143.791Z" fill="#3F3D56"/>
<path d="M164.501 115.747C164.103 116.233 163.908 116.861 163.96 117.495C164.012 118.128 164.306 118.714 164.778 119.125L190.384 141.363C190.857 141.772 191.468 141.972 192.084 141.919C192.7 141.866 193.27 141.563 193.669 141.078L198.382 135.339C198.78 134.853 198.974 134.225 198.922 133.591C198.87 132.958 198.576 132.372 198.105 131.961L172.498 109.723C172.026 109.313 171.415 109.113 170.799 109.167C170.183 109.22 169.613 109.523 169.214 110.008L164.501 115.747Z" fill="white"/>
<path d="M179.534 124.392C179.445 124.52 179.328 124.625 179.193 124.698C179.058 124.772 178.908 124.812 178.755 124.815L174.732 124.91C174.603 124.913 174.474 124.89 174.354 124.842C174.233 124.794 174.123 124.722 174.029 124.63C173.936 124.538 173.861 124.429 173.809 124.307C173.756 124.185 173.728 124.054 173.725 123.921C173.722 123.788 173.745 123.656 173.791 123.532C173.838 123.408 173.908 123.295 173.997 123.199C174.087 123.103 174.194 123.026 174.312 122.972C174.43 122.918 174.558 122.889 174.687 122.886L177.319 122.824L174.727 115.79C174.635 115.539 174.644 115.261 174.751 115.016C174.858 114.772 175.056 114.582 175.299 114.486C175.543 114.391 175.814 114.4 176.051 114.51C176.289 114.619 176.475 114.822 176.568 115.072L179.653 123.444C179.709 123.596 179.729 123.759 179.711 123.92C179.693 124.08 179.637 124.234 179.549 124.369L179.534 124.392Z" fill="#4CAF50"/>
<path d="M180.05 126.16C181.02 126.306 181.947 126.67 182.766 127.225C183.585 127.78 184.276 128.513 184.79 129.372C185.304 130.231 185.628 131.196 185.74 132.198C185.852 133.2 185.749 134.215 185.438 135.172L204.326 150.134L192.611 154.28L176.471 139.436C174.943 138.793 173.697 137.595 172.97 136.07C172.243 134.546 172.085 132.799 172.526 131.163C172.967 129.527 173.977 128.113 175.363 127.191C176.75 126.269 178.418 125.902 180.05 126.16Z" fill="#FFB6B6"/>
<path d="M278.383 133.558L230.025 164.135C230.025 164.135 210.527 156.716 214.337 153.281C218.148 149.847 206.018 147.525 206.018 147.525L192.617 138.253L184.841 147.547C184.841 147.547 186.258 162.643 188.668 160.029C191.079 157.415 194.683 164.556 194.683 164.556C194.683 164.556 195.748 172.529 202.61 170.522C209.473 168.516 227.888 189.547 227.888 189.547L287.402 166.72L278.383 133.558Z" fill="#81C784"/>
<path d="M191.092 103.205C190.531 103.205 189.978 103.071 189.477 102.813C188.976 102.555 188.54 102.181 188.203 101.719L179.347 89.5747C179.062 89.1845 178.855 88.7405 178.737 88.2681C178.62 87.7957 178.594 87.304 178.661 86.8212C178.728 86.3385 178.887 85.874 179.128 85.4544C179.37 85.0347 179.69 84.6681 180.069 84.3755C180.835 83.7846 181.798 83.5309 182.746 83.6702C183.216 83.7392 183.667 83.9026 184.075 84.1511C184.483 84.3996 184.84 84.7283 185.124 85.1184L190.919 93.0631L205.801 70.1063C206.332 69.2867 207.158 68.7178 208.098 68.5247C209.037 68.3315 210.012 68.5299 210.809 69.0763C211.606 69.6226 212.159 70.4722 212.347 71.438C212.535 72.4038 212.342 73.4069 211.811 74.2264L194.097 101.551C193.777 102.045 193.346 102.453 192.84 102.741C192.335 103.028 191.77 103.187 191.192 103.204C191.159 103.204 191.126 103.205 191.092 103.205Z" fill="white"/>
</g>
<defs>
<clipPath id="clip0_12_234">
<rect width="401" height="481" fill="white"/>
</clipPath>
</defs>
</svg>
