<svg width="650" height="516" viewBox="0 0 650 516" fill="none" xmlns="http://www.w3.org/2000/svg">
<path d="M515.489 106.072H134.67C129.406 106.072 125.124 101.534 125.124 95.9556V64.863C125.124 59.285 129.406 54.7469 134.67 54.7469H515.489C520.752 54.7469 525.035 59.285 525.035 64.863V95.9556C525.035 101.534 520.752 106.072 515.489 106.072Z" stroke="#4CAF50" stroke-width="2" stroke-linecap="round" stroke-linejoin="round"/>
<path d="M515.489 297.744H134.67C129.406 297.744 125.124 293.206 125.124 287.628V256.535C125.124 250.957 129.406 246.419 134.67 246.419H515.489C520.752 246.419 525.035 250.957 525.035 256.535V287.628C525.035 293.206 520.752 297.744 515.489 297.744Z" stroke="#4CAF50" stroke-width="2" stroke-linecap="round" stroke-linejoin="round"/>
<path d="M245.148 435.362H133.489C128.226 435.362 123.944 430.824 123.944 425.246V394.153C123.944 388.575 128.226 384.037 133.489 384.037H245.148C250.411 384.037 254.693 388.575 254.693 394.153V425.246C254.693 430.824 250.411 435.362 245.148 435.362Z" fill="#4CAF50"/>
<path d="M125.96 1.2511H209.483" stroke="#BAB7C9" stroke-width="2" stroke-linecap="round" stroke-linejoin="round"/>
<path d="M125.96 192.923H281.111" stroke="#BAB7C9" stroke-width="2" stroke-linecap="round" stroke-linejoin="round"/>
<path d="M469.416 459.446L456.282 468.344L468.192 488.088L481.326 479.19L469.416 459.446Z" fill="#F1A1A4"/>
<path d="M427.763 194.044L411.171 200.048L410.911 174.66L426.009 174.482L427.763 194.044Z" fill="#F1A1A4"/>
<path d="M412.848 181.671C422.011 181.671 429.439 173.798 429.439 164.088C429.439 154.377 422.011 146.505 412.848 146.505C403.685 146.505 396.257 154.377 396.257 164.088C396.257 173.798 403.685 181.671 412.848 181.671Z" fill="#F1A1A4"/>
<path d="M417.388 162.295C414.617 162.238 412.756 159.293 411.646 156.583C410.536 153.889 409.395 150.773 406.815 149.678C404.702 148.785 401.057 155.017 399.373 153.394C397.62 151.698 399.22 142.838 401.05 141.239C402.88 139.641 405.391 139.3 407.749 139.146C413.53 138.797 419.341 139.219 425.022 140.412C428.528 141.142 432.157 142.27 434.707 144.923C437.946 148.29 438.818 153.418 439.094 158.214C439.385 163.122 439.163 168.267 436.958 172.599C434.745 176.924 430.067 180.145 425.527 179.107C425.045 176.502 425.473 173.833 425.626 171.171C425.78 168.526 425.558 165.67 424.011 163.577C422.464 161.483 419.203 160.688 417.45 162.579" fill="#2F2E43"/>
<path d="M437.861 168.145C439.507 166.839 441.475 165.735 443.519 165.978C445.732 166.23 447.615 168.145 448.205 170.417C448.794 172.689 448.182 175.204 446.842 177.086C445.502 178.969 443.489 180.218 441.345 180.859C440.105 181.233 438.749 181.387 437.555 180.859C435.802 180.08 434.837 177.735 435.503 175.845" fill="#2F2E43"/>
<path d="M376.121 334.251C375.079 340.037 377.154 345.294 380.768 345.984C384.374 346.674 388.149 342.536 389.198 336.75C389.649 334.446 389.55 332.061 388.907 329.797L401.67 239.117L384.474 235.903L378.816 327.882C377.43 329.764 376.504 331.947 376.121 334.276L376.121 334.251Z" fill="#F1A1A4"/>
<path d="M410.865 188.397L399.151 188.535C390.882 189.955 388.685 194.669 386.901 203.335C384.167 216.552 380.676 234.167 381.411 234.411C382.583 234.816 402.619 244.52 412.764 242.119L410.873 188.397L410.865 188.397Z" fill="#4CAF50"/>
<path d="M425.252 476.611L409.665 476.795L409.912 500.227L425.499 500.042L425.252 476.611Z" fill="#F1A1A4"/>
<path d="M394.84 514.598C393.194 514.622 391.747 514.598 390.645 514.5C386.495 514.151 382.521 510.955 380.508 509.088C379.604 508.253 379.306 506.89 379.757 505.721C380.079 504.885 380.737 504.244 381.564 503.977L392.475 500.536L410.061 487.66L410.26 488.033C410.337 488.171 412.113 491.473 412.718 493.713C412.948 494.565 412.902 495.27 412.565 495.822C412.335 496.204 412.013 496.431 411.753 496.569C412.075 496.918 413.085 497.632 416.194 498.118C420.711 498.832 421.622 493.851 421.653 493.64L421.683 493.469L421.814 493.372C423.95 491.871 425.259 491.197 425.718 491.335C426.009 491.416 426.476 491.57 427.9 505.072C428.031 505.494 428.965 508.593 428.383 511.579C427.755 514.825 414.395 513.859 411.73 513.64C411.654 513.648 401.67 514.525 394.825 514.598H394.848L394.84 514.598Z" fill="#2F2E43"/>
<path d="M452.393 510.703C450.563 510.728 448.879 510.508 447.677 510.297C446.498 510.086 445.564 509.105 445.364 507.855C445.211 506.955 445.464 506.054 446.023 505.372L453.557 496.333L462.04 475.546L462.4 475.749C462.53 475.822 465.684 477.631 467.323 479.189C467.943 479.781 468.257 480.406 468.257 481.071C468.257 481.526 468.096 481.899 467.935 482.151C468.387 482.264 469.597 482.297 472.475 480.974C476.663 479.043 474.948 474.304 474.872 474.118L474.811 473.955L474.88 473.809C475.944 471.343 476.725 470.028 477.176 469.882C477.467 469.801 477.934 469.647 485.889 480.309C486.211 480.593 488.554 482.694 489.549 485.55C490.629 488.658 478.83 495.327 476.441 496.634C476.373 496.699 464.038 506.411 458.97 509.194C456.956 510.297 454.56 510.662 452.378 510.679L452.401 510.703L452.393 510.703Z" fill="#2F2E43"/>
<path d="M434.646 280.473L391.005 280.984L387.498 324.052L406.493 482.824L428.773 482.556L418.904 390.845L455.915 473.323L475.561 458.393L446.528 381.328C446.528 381.328 455.907 313.788 447.807 297.09C439.714 280.392 434.653 280.448 434.653 280.448V280.473L434.646 280.473Z" fill="#81C784"/>
<path d="M456.374 282.842L387.062 283.662L406.861 188.454L437.065 188.089L456.374 282.842Z" fill="#4CAF50"/>
<path d="M463.142 333.229C464.306 338.998 462.339 344.296 458.748 345.067C455.149 345.846 451.29 341.797 450.134 336.028C449.637 333.732 449.683 331.347 450.272 329.067L435.603 238.703L452.722 235.084L460.31 326.916C461.734 328.766 462.706 330.933 463.142 333.245V333.229Z" fill="#F1A1A4"/>
<path d="M425.359 188.227L437.073 188.089C445.365 189.322 447.661 193.979 449.637 202.604C452.646 215.757 456.497 233.275 455.777 233.542C454.606 233.964 434.791 244.139 424.601 241.981L425.374 188.227L425.359 188.227Z" fill="#4CAF50"/>
</svg>
